<?xml version="1.0" standalone="no"?>
<!DOCTYPE svg PUBLIC "-//W3C//DTD SVG 1.1//EN" "http://www.w3.org/Graphics/SVG/1.1/DTD/svg11.dtd" >
<svg xmlns="http://www.w3.org/2000/svg" xmlns:xlink="http://www.w3.org/1999/xlink" version="1.1">
<metadata>
Created by FontForge 20170731 at Tue Sep 12 18:24:08 2017
 By Aleksey,,,
Copyright (c) 2017 by atipo. All rights reserved.
</metadata>
<defs>
<font id="." horiz-adv-x="814" >
  <font-face 
    font-family="."
    font-weight="400"
    font-stretch="normal"
    units-per-em="1000"
    panose-1="2 0 5 3 0 0 0 2 0 4"
    ascent="750"
    descent="-250"
    x-height="520"
    cap-height="700"
    bbox="-145 -233 1109 943"
    underline-thickness="50"
    underline-position="-300"
    unicode-range="U+000D-25FC"
  />
<missing-glyph horiz-adv-x="568" 
d="M34 0v700h500v-700h-500zM284 395l170 255h-340zM84 95l170 255l-170 255v-510zM484 95v510l-170 -255zM114 50h340l-170 255z" />
    <glyph glyph-name="ellipsis" unicode="&#x2e;&#x2e;&#x2e;" horiz-adv-x="736" 
d="M137 -13q-23 0 -40 16.5t-17 39.5t17 39.5t40 16.5t39.5 -16.5t16.5 -39.5t-16.5 -39.5t-39.5 -16.5zM368 -13q-23 0 -39.5 16.5t-16.5 39.5t16.5 39.5t39.5 16.5t40 -16.5t17 -39.5t-17 -39.5t-40 -16.5zM600 -13q-23 0 -40 16.5t-17 39.5t17 39.5t40 16.5t39.5 -16.5
t16.5 -39.5t-16.5 -39.5t-39.5 -16.5z" />
    <glyph glyph-name="degree.alt" unicode="&#xb0;C" horiz-adv-x="992" 
d="M206 424q-65 0 -105.5 41.5t-40.5 102.5q0 60 41.5 102.5t104.5 42.5q64 0 105.5 -42t41.5 -102q0 -62 -41 -103.5t-106 -41.5zM666 -13q-91 0 -158.5 61t-67.5 161v282q0 100 67.5 161t158.5 61q93 0 159.5 -61t66.5 -161v-5h-80q0 65 -39.5 107.5t-106.5 42.5
q-63 0 -104.5 -42t-41.5 -108v-272q0 -66 41 -108t105 -42t105 42.5t41 107.5h80v-5q0 -100 -67.5 -161t-158.5 -61zM206 483q38 0 60.5 24.5t22.5 61.5t-22.5 61t-60.5 24q-37 0 -60 -24.5t-23 -61.5t22.5 -61t60.5 -24z" />
    <glyph glyph-name=".notdef" horiz-adv-x="568" 
d="M34 0v700h500v-700h-500zM284 395l170 255h-340zM84 95l170 255l-170 255v-510zM484 95v510l-170 -255zM114 50h340l-170 255z" />
    <glyph glyph-name=".null" horiz-adv-x="0" 
 />
    <glyph glyph-name="nonmarkingreturn" horiz-adv-x="333" 
 />
    <glyph glyph-name="NULL" horiz-adv-x="0" 
 />
    <glyph glyph-name="NULL" horiz-adv-x="0" 
 />
    <glyph glyph-name="CR" unicode="&#xd;" horiz-adv-x="0" 
 />
    <glyph glyph-name="space" unicode=" " horiz-adv-x="280" 
 />
    <glyph glyph-name="exclam" unicode="!" horiz-adv-x="313" 
d="M122 176l-7 524h83l-7 -524h-69zM157 -13q-23 0 -40 16.5t-17 39.5t17 39.5t40 16.5t39.5 -16.5t16.5 -39.5t-16.5 -39.5t-39.5 -16.5z" />
    <glyph glyph-name="quotedbl" unicode="&#x22;" horiz-adv-x="362" 
d="M86 502l-6 198h70l-6 -198h-58zM217 502l-5 198h70l-6 -198h-59z" />
    <glyph glyph-name="numbersign" unicode="#" horiz-adv-x="707" 
d="M136 0l40 192h-116l13 65h116l39 185h-115l12 65h117l40 193h71l-39 -193h144l40 193h71l-39 -193h117l-12 -65h-119l-38 -185h118l-13 -65h-119l-40 -192h-71l39 192h-145l-40 -192h-71zM261 257h145l39 185h-145z" />
    <glyph glyph-name="dollar" unicode="$" horiz-adv-x="588" 
d="M538 185q0 -79 -57 -134t-155 -63v-73h-67v74q-93 11 -153.5 71t-60.5 148h81q0 -54 36 -93.5t97 -49.5v266q-44 11 -71.5 22t-58 32t-45.5 56.5t-15 84.5q0 71 51 123.5t139 61.5v55h67v-55q82 -9 139.5 -59.5t57.5 -141.5h-83q0 53 -29.5 86t-84.5 41v-242
q39 -10 62.5 -18t55.5 -24.5t50 -36.5t31 -54t13 -77zM150 526q0 -46 28 -71.5t81 -41.5v224q-54 -8 -81.5 -39t-27.5 -72zM326 63q59 7 94.5 38t35.5 79q0 58 -33.5 87t-96.5 47v-251z" />
    <glyph glyph-name="percent" unicode="%" horiz-adv-x="816" 
d="M224 407q-66 0 -110 44t-44 108t44 109t109 45q68 0 113 -44.5t45 -109.5q0 -64 -45 -108t-112 -44zM101 0l533 700h82l-534 -700h-81zM225 469q40 0 64 26t24 64q0 39 -25 65.5t-64 26.5q-38 0 -62.5 -26.5t-24.5 -65.5q0 -38 25 -64t63 -26zM590 -13q-67 0 -111 43.5
t-44 108.5q0 64 44 109t110 45q67 0 112 -44.5t45 -109.5q0 -64 -45 -108t-111 -44zM590 48q40 0 64 26t24 65t-24.5 65t-64.5 26q-38 0 -62.5 -26t-24.5 -65t24.5 -65t63.5 -26z" />
    <glyph glyph-name="ampersand" unicode="&#x26;" horiz-adv-x="683" 
d="M648 0h-94l-49 66q-82 -79 -207 -79q-109 0 -176 67t-67 158q0 76 45.5 135.5t130.5 89.5l-119 161v102h394v-74h-320v-6l317 -426q27 62 27 140h76q0 -121 -53 -207zM298 59q99 0 162 68l-182 247q-72 -16 -108 -61t-36 -97q0 -66 48.5 -111.5t115.5 -45.5z" />
    <glyph glyph-name="quotesingle" unicode="'" horiz-adv-x="230" 
d="M86 502l-6 198h70l-6 -198h-58z" />
    <glyph glyph-name="parenleft" unicode="(" horiz-adv-x="377" 
d="M253 -143q-74 0 -116 36.5t-42 112.5v608q0 76 42 112.5t116 36.5h4v-70h-5q-41 0 -59.5 -19t-18.5 -61v-606q0 -42 18.5 -61t59.5 -19h5v-70h-4z" />
    <glyph glyph-name="parenright" unicode=")" horiz-adv-x="377" 
d="M120 -143v70h5q41 0 59.5 19t18.5 61v606q0 42 -18.5 61t-59.5 19h-5v70h4q74 0 116 -36.5t42 -112.5v-608q0 -76 -42 -112.5t-116 -36.5h-4z" />
    <glyph glyph-name="asterisk" unicode="*" horiz-adv-x="492" 
d="M221 358l10 124l-8 4l-80 -96l-36 36l96 80l-4 8l-124 -10v50l124 -10l4 8l-96 80l36 36l80 -96l8 4l-10 124h50l-10 -124l8 -4l80 96l36 -36l-96 -80l4 -8l124 10v-50l-124 10l-4 -8l96 -80l-36 -36l-80 96l-8 -4l10 -124h-50z" />
    <glyph glyph-name="plus" unicode="+" horiz-adv-x="480" 
d="M204 64v214h-199v67h199v213h72v-213h199v-67h-199v-214h-72z" />
    <glyph glyph-name="comma" unicode="," horiz-adv-x="266" 
d="M80 -111l17 204h89l-41 -204h-65z" />
    <glyph glyph-name="hyphen" unicode="-" horiz-adv-x="395" 
d="M70 264v74h255v-74h-255z" />
    <glyph glyph-name="period" unicode="." horiz-adv-x="273" 
d="M137 -13q-23 0 -40 16.5t-17 39.5t17 39.5t40 16.5t39.5 -16.5t16.5 -39.5t-16.5 -39.5t-39.5 -16.5z" />
    <glyph glyph-name="slash" unicode="/" horiz-adv-x="486" 
d="M55 -108l303 858h73l-303 -858h-73z" />
    <glyph glyph-name="zero" unicode="0" horiz-adv-x="622" 
d="M311 -13q-91 0 -158.5 61t-67.5 161v282q0 100 67.5 161t158.5 61t158.5 -61t67.5 -161v-282q0 -100 -67.5 -161t-158.5 -61zM311 64q64 0 105 42.5t41 107.5v272q0 64 -41.5 107t-104.5 43t-104.5 -43t-41.5 -107v-272q0 -65 41 -107.5t105 -42.5z" />
    <glyph glyph-name="one" unicode="1" horiz-adv-x="528" 
d="M118 0v74h142v552h-6l-164 -85v79l155 80h96v-626h132v-74h-355z" />
    <glyph glyph-name="two" unicode="2" horiz-adv-x="586" 
d="M81 0v103l280 290q56 59 56 120q0 54 -35.5 89t-95.5 35q-58 0 -94 -37t-36 -92h-76q0 80 55.5 142.5t152.5 62.5q96 0 154 -58.5t58 -139.5q0 -49 -18 -86t-53 -76l-274 -273v-6h351v-74h-425z" />
    <glyph glyph-name="three" unicode="3" horiz-adv-x="600" 
d="M292 -12q-100 0 -156 64t-56 141h76q2 -56 38.5 -92.5t95.5 -36.5q67 0 107 42.5t40 105.5q0 62 -40.5 104t-107.5 42h-71v89l211 173v6h-333v74h407v-108l-198 -158v-6h6q53 0 95 -21.5t66 -55t36 -69t12 -68.5q0 -96 -61.5 -161t-166.5 -65z" />
    <glyph glyph-name="four" unicode="4" horiz-adv-x="627" 
d="M390 0v177h-325v94l283 429h122v-451h92v-72h-92v-177h-80zM139 249h251v377h-6l-245 -371v-6z" />
    <glyph glyph-name="five" unicode="5" horiz-adv-x="597" 
d="M294 -13q-92 0 -153.5 51.5t-65.5 143.5h76q7 -59 44 -89.5t96 -30.5q63 0 103.5 42.5t40.5 107.5q0 67 -40 109.5t-110 42.5q-25 0 -47 -7t-35.5 -17t-24 -20.5t-14.5 -17.5l-5 -7h-70l24 405h363v-74h-292l-15 -235h6q5 5 14 13t40.5 21t67.5 13q98 0 159 -65.5
t61 -160.5q0 -99 -63 -162t-160 -63z" />
    <glyph glyph-name="six" unicode="6" horiz-adv-x="618" 
d="M308 -13q-96 0 -162 66.5t-66 164.5q0 65 36 130l192 352h92l-151 -261l4 -4q27 12 59 12q96 0 161 -65.5t65 -163.5q0 -97 -67 -164t-163 -67zM308 63q64 0 105.5 44.5t41.5 110.5q0 65 -41.5 110.5t-105.5 45.5q-63 0 -104.5 -45.5t-41.5 -110.5q0 -66 41 -110.5
t105 -44.5z" />
    <glyph glyph-name="seven" unicode="7" horiz-adv-x="555" 
d="M162 0l259 620v6h-281v-74h-75v148h430v-99l-247 -601h-86z" />
    <glyph glyph-name="eight" unicode="8" horiz-adv-x="618" 
d="M309 -13q-102 0 -165.5 58t-63.5 151q0 65 36 111.5t77 63.5v6q-33 17 -58 56t-25 93q0 82 57.5 134.5t141.5 52.5q83 0 141 -52.5t58 -134.5q0 -54 -25 -93t-58 -56v-6q41 -17 77 -63.5t36 -111.5q0 -93 -63.5 -151t-165.5 -58zM309 407q53 0 85 33.5t32 82.5t-32 82
t-85 33t-85 -33t-32 -82t32 -82.5t85 -33.5zM309 61q68 0 107 39.5t39 95.5q0 63 -41.5 100t-104.5 37t-104.5 -37t-41.5 -100q0 -56 39 -95.5t107 -39.5z" />
    <glyph glyph-name="nine" unicode="9" horiz-adv-x="618" 
d="M218 0l151 261l-4 4q-27 -12 -59 -12q-96 0 -161 65.5t-65 163.5q0 97 67 164t163 67t162 -66.5t66 -164.5q0 -65 -36 -130l-192 -352h-92zM310 326q63 0 104.5 45.5t41.5 110.5q0 66 -41 110.5t-105 44.5t-105.5 -44.5t-41.5 -110.5q0 -65 41.5 -110.5t105.5 -45.5z" />
    <glyph glyph-name="colon" unicode=":" horiz-adv-x="273" 
d="M137 374q-23 0 -40 17t-17 40t17 39.5t40 16.5t39.5 -16.5t16.5 -39.5t-16.5 -40t-39.5 -17zM137 -13q-23 0 -40 16.5t-17 39.5t17 39.5t40 16.5t39.5 -16.5t16.5 -39.5t-16.5 -39.5t-39.5 -16.5z" />
    <glyph glyph-name="semicolon" unicode=";" horiz-adv-x="273" 
d="M137 374q-23 0 -40 17t-17 40t17 39.5t40 16.5t39.5 -16.5t16.5 -39.5t-16.5 -40t-39.5 -17zM86 -111l17 204h89l-41 -204h-65z" />
    <glyph glyph-name="less" unicode="&#x3c;" horiz-adv-x="556" 
d="M481 95l-406 179v76l406 179v-74l-332 -139v-6l332 -142v-73z" />
    <glyph glyph-name="equal" unicode="=" horiz-adv-x="480" 
d="M5 357v66h470v-66h-470zM5 191v67h470v-67h-470z" />
    <glyph glyph-name="greater" unicode="&#x3e;" horiz-adv-x="557" 
d="M75 95v73l332 142v6l-332 139v74l406 -179v-76z" />
    <glyph glyph-name="question" unicode="?" horiz-adv-x="542" 
d="M215 176v97q0 41 14 64.5t47 46.5l49 34q35 25 50 46.5t15 58.5q0 52 -32 85t-88 33q-57 0 -91.5 -35.5t-34.5 -90.5h-74q0 79 52.5 138.5t147.5 59.5q91 0 146.5 -54t55.5 -133q0 -57 -23.5 -92t-64.5 -63l-59 -41q-18 -12 -25 -24t-7 -33v-97h-78zM256 -13
q-23 0 -40 16.5t-17 39.5t17 39.5t40 16.5t39.5 -16.5t16.5 -39.5t-16.5 -39.5t-39.5 -16.5z" />
    <glyph glyph-name="at" unicode="@" horiz-adv-x="915" 
d="M453 -145q-169 0 -286 116t-117 292q0 177 116 295t294 118q177 0 291 -109.5t114 -265.5q0 -117 -43.5 -178t-118.5 -61q-88 0 -112 76h-6q-15 -30 -50 -53t-87 -23q-81 0 -135.5 54.5t-54.5 142.5q0 86 53 141.5t132 55.5q82 0 124 -58h6v52h67v-255q0 -73 68 -73
q93 0 93 178q0 134 -95.5 225t-246.5 91q-150 0 -245 -102t-95 -250q0 -151 93.5 -249.5t240.5 -98.5q106 0 187 46l30 -49q-35 -24 -93 -41t-124 -17zM453 124q52 0 87.5 36t35.5 101q0 59 -34 95.5t-90 36.5q-52 0 -87 -36.5t-35 -97.5t35 -98t88 -37z" />
    <glyph glyph-name="A" unicode="A" horiz-adv-x="674" 
d="M569 0l-61 166h-342l-61 -166h-85l261 700h115l258 -700h-85zM193 240h288l-141 386h-6z" />
    <glyph glyph-name="B" unicode="B" horiz-adv-x="658" 
d="M80 0v69h66v562h-66v69h292q98 0 155 -50.5t57 -128.5q0 -103 -89 -151v-6q44 -15 78.5 -56.5t34.5 -108.5q0 -92 -62 -145.5t-154 -53.5h-312zM227 397h142q59 0 95.5 32.5t36.5 85.5q0 51 -36 82t-93 31h-145v-231zM227 71h151q66 0 106 32.5t40 97.5t-44 96.5
t-111 31.5h-142v-258z" />
    <glyph glyph-name="C" unicode="C" horiz-adv-x="774" 
d="M404 -13q-152 0 -253 103.5t-101 259.5q0 155 101.5 259t253.5 104q115 0 202 -63t122 -164h-90q-28 69 -91 110t-143 41q-116 0 -193.5 -82t-77.5 -205q0 -124 77 -205.5t194 -81.5q81 0 144.5 41t89.5 110h90q-33 -102 -121 -164.5t-204 -62.5z" />
    <glyph glyph-name="D" unicode="D" horiz-adv-x="735" 
d="M80 0v69h66v562h-66v69h254q163 0 257 -97t94 -253q0 -164 -92.5 -257t-258.5 -93h-254zM227 72h107q125 0 196.5 73.5t71.5 204.5q0 128 -71.5 202.5t-196.5 74.5h-107v-555z" />
    <glyph glyph-name="E" unicode="E" horiz-adv-x="560" 
d="M100 0v700h399v-74h-318v-233h274v-73h-274v-247h329v-73h-410z" />
    <glyph glyph-name="F" unicode="F" horiz-adv-x="549" 
d="M100 0v700h399v-74h-318v-240h297v-73h-297v-313h-81z" />
    <glyph glyph-name="G" unicode="G" horiz-adv-x="803" 
d="M406 -13q-152 0 -254 103.5t-102 259.5q0 155 101.5 259t253.5 104q115 0 202 -63t122 -164h-90q-28 69 -91 110t-143 41q-116 0 -193.5 -82t-77.5 -205q0 -124 78 -205.5t195 -81.5q88 0 156.5 47.5t93.5 146.5h-214v71h310q-12 -91 -45 -159t-81.5 -106.5t-103.5 -57
t-117 -18.5z" />
    <glyph glyph-name="H" unicode="H" horiz-adv-x="734" 
d="M100 0v700h81v-307h372v307h81v-700h-81v319h-372v-319h-81z" />
    <glyph glyph-name="I" unicode="I" horiz-adv-x="469" 
d="M90 0v70h104v560h-104v70h289v-70h-104v-560h104v-70h-289z" />
    <glyph glyph-name="J" unicode="J" horiz-adv-x="530" 
d="M227 -13q-88 0 -147.5 50.5t-59.5 146.5h81q0 -58 34 -90t95 -32q70 0 99.5 43t29.5 109v412h-210v74h291v-484q0 -46 -11.5 -85t-35 -72.5t-66.5 -52.5t-100 -19z" />
    <glyph glyph-name="K" unicode="K" horiz-adv-x="618" 
d="M100 0v700h81v-300h96l212 300h97l-243 -335l255 -365h-100l-220 326h-97v-326h-81z" />
    <glyph glyph-name="L" unicode="L" horiz-adv-x="533" 
d="M100 0v700h81v-627h302v-73h-383z" />
    <glyph glyph-name="M" unicode="M" horiz-adv-x="886" 
d="M100 0v700h139l201 -626h6l201 626h139v-700h-78v626h-6l-203 -626h-112l-203 626h-6v-626h-78z" />
    <glyph glyph-name="N" unicode="N" horiz-adv-x="735" 
d="M100 0v700h133l316 -626h6v626h80v-700h-136l-312 626h-6v-626h-81z" />
    <glyph glyph-name="O" unicode="O" 
d="M406 -13q-152 0 -254 103.5t-102 259.5q0 155 102.5 259t254.5 104t254.5 -104.5t102.5 -258.5q0 -155 -102.5 -259t-255.5 -104zM407 63q117 0 195 81.5t78 205.5q0 123 -78.5 205t-194.5 82t-194.5 -82t-78.5 -205q0 -124 78 -205.5t195 -81.5z" />
    <glyph glyph-name="P" unicode="P" horiz-adv-x="585" 
d="M100 0v700h231q96 0 155 -57.5t59 -152.5q0 -94 -60.5 -153.5t-153.5 -59.5h-150v-277h-81zM181 349h143q62 0 100 39.5t38 101.5q0 61 -38 99.5t-100 38.5h-143v-279z" />
    <glyph glyph-name="Q" unicode="Q" 
d="M544 -81l-33 83q-55 -15 -105 -15q-152 0 -254 103.5t-102 259.5q0 155 102.5 259t254.5 104t254.5 -104.5t102.5 -258.5q0 -105 -50 -190t-136 -131l44 -110h-78zM407 63q42 0 76 10l-73 185h79l61 -156q60 37 95 102.5t35 145.5q0 123 -78.5 205t-194.5 82t-194.5 -82
t-78.5 -205q0 -124 78 -205.5t195 -81.5z" />
    <glyph glyph-name="R" unicode="R" horiz-adv-x="612" 
d="M100 0v700h222q106 0 167 -55.5t61 -148.5q0 -80 -43 -135.5t-123 -70.5l188 -290h-98l-175 283h-118v-283h-81zM181 355h141q64 0 104 36.5t40 103.5q0 58 -39 95.5t-110 37.5h-136v-273z" />
    <glyph glyph-name="S" unicode="S" horiz-adv-x="588" 
d="M295 -13q-106 0 -178 62.5t-72 158.5h81q0 -62 47 -104t125 -42q70 0 114 32t44 86q0 60 -40 92t-97 45t-113.5 28.5t-96.5 59.5t-40 121q0 78 61 132.5t163 54.5q91 0 160.5 -51.5t69.5 -151.5h-83q0 61 -38.5 95t-109.5 34q-70 0 -106 -33t-36 -80q0 -38 21.5 -63.5
t55.5 -38.5t75.5 -23t83 -23.5t75.5 -34t55.5 -61t21.5 -97.5q0 -85 -65.5 -141.5t-177.5 -56.5z" />
    <glyph glyph-name="T" unicode="T" horiz-adv-x="549" 
d="M234 0v626h-204v74h489v-74h-204v-626h-81z" />
    <glyph glyph-name="U" unicode="U" horiz-adv-x="702" 
d="M351 -13q-124 0 -192.5 71.5t-68.5 192.5v449h81v-448q0 -89 46.5 -139.5t133.5 -50.5t134 51t47 140v447h80v-448q0 -120 -69 -192.5t-192 -72.5z" />
    <glyph glyph-name="V" unicode="V" horiz-adv-x="659" 
d="M269 0l-249 700h87l215 -626h6l220 626h91l-255 -700h-115z" />
    <glyph glyph-name="W" unicode="W" horiz-adv-x="928" 
d="M189 0l-169 700h87l143 -626h6l147 626h122l147 -626h6l143 626h87l-169 -700h-128l-144 626h-6l-144 -626h-128z" />
    <glyph glyph-name="X" unicode="X" horiz-adv-x="596" 
d="M10 0l236 355l-224 345h94l179 -280h6l180 280h95l-226 -345l236 -355h-96l-191 291h-6l-188 -291h-95z" />
    <glyph glyph-name="Y" unicode="Y" horiz-adv-x="596" 
d="M258 0v309l-238 391h91l182 -311h6l182 311h95l-238 -391v-309h-80z" />
    <glyph glyph-name="Z" unicode="Z" horiz-adv-x="619" 
d="M50 0v110l443 511v6h-430v73h504v-110l-443 -511v-6h445v-73h-519z" />
    <glyph glyph-name="bracketleft" unicode="[" horiz-adv-x="377" 
d="M95 -143v906h162v-69h-83v-768h83v-69h-162z" />
    <glyph glyph-name="backslash" unicode="\" horiz-adv-x="486" 
d="M358 -108l-303 858h73l303 -858h-73z" />
    <glyph glyph-name="bracketright" unicode="]" horiz-adv-x="377" 
d="M120 -143v69h83v768h-83v69h162v-906h-162z" />
    <glyph glyph-name="asciicircum" unicode="^" horiz-adv-x="584" 
d="M75 318l179 382h76l179 -382h-73l-142 308h-6l-139 -308h-74z" />
    <glyph glyph-name="underscore" unicode="_" horiz-adv-x="670" 
d="M65 -95v66h540v-66h-540z" />
    <glyph glyph-name="grave" unicode="`" horiz-adv-x="252" 
d="M139 610l-89 133h92l60 -133h-63z" />
    <glyph glyph-name="a" unicode="a" horiz-adv-x="671" 
d="M304 -13q-112 0 -183 76.5t-71 195.5q0 121 69 197.5t179 76.5q70 0 114.5 -32t62.5 -65h6v84h80v-426q0 -24 26 -24h24v-70h-51q-32 0 -53.5 21.5t-22.5 55.5v5h-6q-59 -95 -174 -95zM308 58q80 0 128 58t48 142q0 94 -50.5 148.5t-126.5 54.5q-77 0 -126.5 -57
t-49.5 -146t50.5 -144.5t126.5 -55.5z" />
    <glyph glyph-name="b" unicode="b" horiz-adv-x="651" 
d="M347 -13q-110 0 -175 95h-6v-82h-76v750h79v-314h6q8 14 20 27.5t33.5 30.5t54 28t70.5 11q110 0 179 -77t69 -197q0 -119 -71.5 -195.5t-182.5 -76.5zM342 58q76 0 127 55.5t51 144.5t-49.5 146t-126.5 57q-76 0 -127 -54.5t-51 -148.5q0 -84 48.5 -142t127.5 -58z" />
    <glyph glyph-name="c" unicode="c" horiz-adv-x="609" 
d="M317 -13q-117 0 -192 78t-75 195q0 116 76 194.5t190 78.5q87 0 153.5 -49.5t87.5 -134.5l-78 -18q-10 58 -55 94t-106 36q-82 0 -134 -57.5t-52 -143.5q0 -88 53 -144.5t135 -56.5q61 0 106 36t55 94l78 -18q-21 -85 -88 -134.5t-154 -49.5z" />
    <glyph glyph-name="d" unicode="d" horiz-adv-x="641" 
d="M304 -13q-111 0 -182.5 76.5t-71.5 195.5q0 120 69 197t179 77q38 0 70.5 -11t54 -28t33.5 -30.5t20 -27.5h6v314h79v-750h-76v82h-6q-65 -95 -175 -95zM309 58q79 0 127.5 58t48.5 142q0 94 -51 148.5t-127 54.5q-77 0 -126.5 -57t-49.5 -146t50.5 -144.5t127.5 -55.5z
" />
    <glyph glyph-name="e" unicode="e" horiz-adv-x="599" 
d="M307 -13q-117 0 -187 75t-70 196q0 122 73 198.5t179 76.5q116 0 181.5 -73.5t65.5 -192.5v-29h-418q1 -86 48 -133.5t129 -47.5q56 0 100.5 30.5t56.5 83.5l77 -18q-22 -75 -84.5 -120.5t-150.5 -45.5zM133 302h335q-4 77 -51 118.5t-115 41.5q-66 0 -115.5 -44.5
t-53.5 -115.5z" />
    <glyph glyph-name="f" unicode="f" horiz-adv-x="404" 
d="M128 0v453h-98v67h98v82q0 148 158 148h69v-69h-70q-41 0 -59.5 -19t-18.5 -61v-81h152v-67h-152v-453h-79z" />
    <glyph glyph-name="g" unicode="g" horiz-adv-x="641" 
d="M178 -230v73h226q41 0 59.5 20.5t18.5 62.5v158h-6q-19 -35 -62.5 -66t-115.5 -31q-110 0 -179 76.5t-69 197.5q0 119 71.5 195.5t182.5 76.5q110 0 175 -95h6v82h76v-602q0 -148 -158 -148h-225zM307 59q76 0 127 54.5t51 147.5q0 84 -48.5 142t-127.5 58
q-77 0 -127.5 -55t-50.5 -145q0 -89 49.5 -145.5t126.5 -56.5z" />
    <glyph glyph-name="h" unicode="h" horiz-adv-x="612" 
d="M90 0v750h79v-306h6q18 38 60.5 63.5t100.5 25.5q89 0 142.5 -59t53.5 -147v-327h-79v322q0 61 -40 99t-96 38q-61 0 -104.5 -40.5t-43.5 -102.5v-316h-79z" />
    <glyph glyph-name="i" unicode="i" horiz-adv-x="345" 
d="M197 614q-25 0 -41 16.5t-16 41.5q0 24 16 40.5t41 16.5t41.5 -16.5t16.5 -40.5q0 -25 -16.5 -41.5t-41.5 -16.5zM158 0v453h-98v67h177v-520h-79z" />
    <glyph glyph-name="j" unicode="j" horiz-adv-x="348" 
d="M210 614q-25 0 -41 16.5t-16 41.5q0 24 16 40.5t41 16.5t41.5 -16.5t16.5 -40.5q0 -25 -16.5 -41.5t-41.5 -16.5zM15 -230v70h78q41 0 59.5 18.5t18.5 60.5v534h-113v67h192v-602q0 -148 -158 -148h-77z" />
    <glyph glyph-name="k" unicode="k" horiz-adv-x="531" 
d="M90 0v750h79v-431h91l147 201h91l-171 -230v-6l184 -284h-94l-154 247h-94v-247h-79z" />
    <glyph glyph-name="l" unicode="l" horiz-adv-x="389" 
d="M65 0v68h105v614h-105v68h184v-682h105v-68h-289z" />
    <glyph glyph-name="m" unicode="m" horiz-adv-x="934" 
d="M90 0v520h79v-75h6q46 88 152 88q57 0 99.5 -25.5t64.5 -69.5h7q50 95 165 95q86 0 138.5 -55t52.5 -141v-337h-79v311q0 72 -33.5 110t-92.5 38q-58 0 -97.5 -39.5t-39.5 -109.5v-310h-79v326q0 61 -36.5 97t-92.5 36t-95.5 -41t-39.5 -105v-313h-79z" />
    <glyph glyph-name="n" unicode="n" horiz-adv-x="608" 
d="M90 0v520h79v-76h6q18 38 59.5 63.5t99.5 25.5q89 0 141.5 -58.5t52.5 -147.5v-327h-79v322q0 61 -39 99t-95 38q-62 0 -104 -42.5t-42 -106.5v-310h-79z" />
    <glyph glyph-name="o" unicode="o" horiz-adv-x="643" 
d="M321 -13q-117 0 -194 77.5t-77 195.5t78 195.5t194 77.5q117 0 194 -78t77 -195t-77.5 -195t-194.5 -78zM321 59q84 0 137.5 57t53.5 144t-53.5 144t-137.5 57q-83 0 -136.5 -57.5t-53.5 -143.5q0 -88 53.5 -144.5t136.5 -56.5z" />
    <glyph glyph-name="p" unicode="p" horiz-adv-x="651" 
d="M90 -230v750h76v-82h6q65 95 175 95q111 0 182.5 -76.5t71.5 -195.5q0 -121 -69 -197.5t-179 -76.5q-72 0 -115.5 31t-62.5 66h-6v-314h-79zM344 59q77 0 126.5 56.5t49.5 145.5q0 90 -50.5 145t-127.5 55q-79 0 -127.5 -58t-48.5 -142q0 -93 51 -147.5t127 -54.5z" />
    <glyph glyph-name="q" unicode="q" horiz-adv-x="641" 
d="M482 -230v314h-6q-19 -35 -62.5 -66t-115.5 -31q-110 0 -179 76.5t-69 197.5q0 119 71.5 195.5t182.5 76.5q110 0 175 -95h6v82h76v-750h-79zM307 59q76 0 127 54.5t51 147.5q0 84 -48.5 142t-127.5 58q-77 0 -127.5 -55t-50.5 -145q0 -89 49.5 -145.5t126.5 -56.5z" />
    <glyph glyph-name="r" unicode="r" horiz-adv-x="390" 
d="M90 0v520h78v-87h6q13 38 51.5 69t90.5 31h34v-79h-47q-68 0 -101 -48.5t-33 -127.5v-278h-79z" />
    <glyph glyph-name="s" unicode="s" horiz-adv-x="529" 
d="M262 -13q-86 0 -139.5 43t-62.5 114l72 18q4 -52 39 -79t95 -27q57 0 89 25t32 66q0 40 -32 60.5t-77.5 29t-91.5 19t-78 43t-32 89.5q0 65 52.5 105t135.5 40q71 0 125.5 -39t63.5 -107l-69 -20q-5 45 -39 71.5t-86 26.5q-48 0 -77.5 -21.5t-29.5 -55.5q0 -36 32 -54
t78 -25.5t92 -18.5t78 -45t32 -94q0 -74 -55.5 -119t-146.5 -45z" />
    <glyph glyph-name="t" unicode="t" horiz-adv-x="432" 
d="M296 0q-158 0 -158 148v305h-98v67h103v151h74v-151h160v-67h-160v-304q0 -42 18.5 -61t59.5 -19h75v-69h-74z" />
    <glyph glyph-name="u" unicode="u" horiz-adv-x="598" 
d="M274 -13q-89 0 -141.5 58.5t-52.5 147.5v327h79v-324q0 -61 39 -99t95 -38q62 0 104 42.5t42 106.5v312h79v-520h-79v76h-6q-18 -38 -59.5 -63.5t-99.5 -25.5z" />
    <glyph glyph-name="v" unicode="v" horiz-adv-x="551" 
d="M224 0l-194 520h85l157 -446h6l156 446h87l-193 -520h-104z" />
    <glyph glyph-name="w" unicode="w" horiz-adv-x="862" 
d="M192 0l-162 520h86l127 -446h6l127 446h110l126 -446h6l128 446h86l-163 -520h-110l-125 446h-6l-126 -446h-110z" />
    <glyph glyph-name="x" unicode="x" horiz-adv-x="532" 
d="M25 0l188 271l-174 249h93l131 -196h6l131 196h93l-174 -253l188 -267h-93l-145 211h-9l-143 -211h-92z" />
    <glyph glyph-name="y" unicode="y" horiz-adv-x="556" 
d="M60 -230v72h58q35 0 55 14.5t32 46.5l37 97h-21l-191 520h88l152 -444h6l161 444h89l-253 -652q-20 -51 -57.5 -74.5t-100.5 -23.5h-55z" />
    <glyph glyph-name="z" unicode="z" horiz-adv-x="516" 
d="M60 0v97l317 350v6h-308v67h382v-97l-317 -350v-6h322v-67h-396z" />
    <glyph glyph-name="braceleft" unicode="{" horiz-adv-x="450" 
d="M326 -143q-74 0 -116 36.5t-42 112.5v222q0 46 -42 46h-31v72h31q42 0 42 46v222q0 76 42 112.5t116 36.5h4v-70h-5q-41 0 -59.5 -19t-18.5 -61v-220q0 -73 -49 -80v-6q49 -7 49 -80v-220q0 -42 18.5 -61t59.5 -19h5v-70h-4z" />
    <glyph glyph-name="bar" unicode="|" horiz-adv-x="316" 
d="M120 -206v989h76v-989h-76z" />
    <glyph glyph-name="braceright" unicode="}" horiz-adv-x="450" 
d="M120 -143v70h5q41 0 59.5 19t18.5 61v220q0 73 49 80v6q-49 7 -49 80v220q0 42 -18.5 61t-59.5 19h-5v70h4q74 0 116 -36.5t42 -112.5v-222q0 -46 42 -46h31v-72h-31q-42 0 -42 -46v-222q0 -76 -42 -112.5t-116 -36.5h-4z" />
    <glyph glyph-name="asciitilde" unicode="~" horiz-adv-x="596" 
d="M75 235q0 61 34 100.5t93 39.5q43 0 104.5 -34.5t85.5 -34.5q30 0 46 20t17 49h66q0 -58 -33.5 -99t-92.5 -41q-40 0 -98 34.5t-93 34.5q-31 0 -46.5 -19.5t-17.5 -49.5h-65z" />
    <glyph glyph-name="uni00A0" unicode="&#xa0;" horiz-adv-x="280" 
 />
    <glyph glyph-name="exclamdown" unicode="&#xa1;" horiz-adv-x="313" 
d="M156 448q-23 0 -39.5 16.5t-16.5 39.5t16.5 39.5t39.5 16.5t40 -16.5t17 -39.5t-17 -39.5t-40 -16.5zM115 -153l7 524h69l7 -524h-83z" />
    <glyph glyph-name="cent" unicode="&#xa2;" horiz-adv-x="609" 
d="M559 258q-18 -75 -73 -122.5t-130 -58.5v-77h-62v75q-108 8 -176 85t-68 187t69 187t175 85v81h62v-83q74 -11 128.5 -58.5t72.5 -122.5l-78 -18q-10 58 -55 94t-106 36q-82 0 -134 -57.5t-52 -143.5q0 -88 53 -144.5t135 -56.5q61 0 106 36t55 94z" />
    <glyph glyph-name="sterling" unicode="&#xa3;" horiz-adv-x="615" 
d="M70 0v72h67v243h-58v67h58v129q0 89 58.5 145.5t148.5 56.5q89 0 140.5 -52t55.5 -115h-79q-3 36 -35 63.5t-81 27.5q-57 0 -92 -35.5t-35 -94.5v-125h168v-67h-168v-243h321v-72h-469z" />
    <glyph glyph-name="yen" unicode="&#xa5;" horiz-adv-x="596" 
d="M576 700l-199 -327h120v-69h-159v-80h159v-69h-159v-155h-80v155h-159v69h159v80h-159v69h120l-199 327h91l182 -311h6l182 311h95z" />
    <glyph glyph-name="section" unicode="&#xa7;" horiz-adv-x="536" 
d="M262 -213q-83 0 -140 48.5t-57 129.5h77q2 -40 30.5 -72.5t89.5 -32.5q48 0 79 26t32 68q0 63 -83 112l-141 86q-84 51 -84 137q0 47 25.5 81t65.5 49v6q-74 58 -74 141q0 74 52.5 120.5t138.5 46.5q83 0 140 -48.5t57 -129.5h-77q-2 40 -30.5 72.5t-89.5 32.5
q-49 0 -79.5 -26t-30.5 -69q0 -63 83 -112l111 -65q56 -33 85 -70t29 -87q0 -92 -91 -131v-6q74 -58 74 -141q0 -73 -53 -119.5t-139 -46.5zM309 140q37 1 62 27t25 62q0 55 -75 98l-94 52q-37 -1 -62 -27t-25 -62q0 -52 45 -78z" />
    <glyph glyph-name="dieresis" unicode="&#xa8;" horiz-adv-x="366" 
d="M99 622q-22 0 -37 15t-15 37t15 37t37 15q23 0 37.5 -15t14.5 -37q0 -23 -14.5 -37.5t-37.5 -14.5zM267 622q-23 0 -37.5 14.5t-14.5 37.5t14.5 37.5t37.5 14.5q22 0 37 -15t15 -37t-15 -37t-37 -15z" />
    <glyph glyph-name="copyright" unicode="&#xa9;" horiz-adv-x="817" 
d="M408 -14q-155 0 -256.5 104t-101.5 258q0 153 102 259t254 106q156 0 258.5 -105.5t102.5 -259.5t-101.5 -258t-257.5 -104zM408 43q130 0 212.5 87t82.5 219q0 131 -83 218.5t-214 87.5q-127 0 -209.5 -87.5t-82.5 -219.5q0 -131 82.5 -218t211.5 -87zM411 155
q-83 0 -136 55t-53 138q0 82 53.5 137.5t134.5 55.5q64 0 110 -35t61 -95l-60 -15q-10 39 -38.5 61t-70.5 22q-57 0 -89.5 -37t-32.5 -94q0 -58 33 -94.5t90 -36.5q86 0 111 80l58 -12q-16 -64 -62 -97t-109 -33z" />
    <glyph glyph-name="ordfeminine" unicode="&#xaa;" horiz-adv-x="554" 
d="M251 300q-85 0 -138 57.5t-53 148.5t51.5 149t135.5 58q53 0 87.5 -24.5t47.5 -48.5h7v63h64v-311q0 -25 21 -25h20v-57h-42q-26 0 -43.5 17.5t-18.5 44.5h-6q-8 -14 -20.5 -28t-43.5 -29t-69 -15zM257 358q61 0 97 42t36 105q0 71 -38 110.5t-96 39.5t-94.5 -41.5
t-36.5 -108.5q0 -68 37 -107.5t95 -39.5z" />
    <glyph glyph-name="guillemotleft" unicode="&#xab;" horiz-adv-x="491" 
d="M189 109l-124 176v14l124 177h77l-124 -181v-6l124 -180h-77zM349 109l-124 176v14l124 177h77l-124 -181v-6l124 -180h-77z" />
    <glyph glyph-name="uni00AD" unicode="&#xad;" horiz-adv-x="395" 
d="M70 264v74h255v-74h-255z" />
    <glyph glyph-name="registered" unicode="&#xae;" horiz-adv-x="512" 
d="M256 335q-92 0 -149 58t-57 145t56.5 145.5t147.5 58.5q94 0 151 -58t57 -145q0 -86 -56.5 -145t-149.5 -59zM256 377q74 0 117 45t43 117t-43.5 116t-118.5 44q-72 0 -115 -45t-43 -116q0 -70 43.5 -115.5t116.5 -45.5zM183 430v216h86q35 0 55 -20.5t20 -49.5
q0 -46 -33 -61l41 -85h-49l-33 74h-40v-74h-47zM230 545h35q14 0 22 9t8 21q0 13 -8 21.5t-22 8.5h-35v-60z" />
    <glyph glyph-name="macron" unicode="&#xaf;" horiz-adv-x="342" 
d="M50 634v67h242v-67h-242z" />
    <glyph glyph-name="degree" unicode="&#xb0;" horiz-adv-x="413" 
d="M206 424q-65 0 -105.5 41.5t-40.5 102.5q0 60 41.5 102.5t104.5 42.5q64 0 105.5 -42t41.5 -102q0 -62 -41 -103.5t-106 -41.5zM206 483q38 0 60.5 24.5t22.5 61.5t-22.5 61t-60.5 24q-37 0 -60 -24.5t-23 -61.5t22.5 -61t60.5 -24z" />
    <glyph glyph-name="uni00B2" unicode="&#xb2;" horiz-adv-x="379" 
d="M64 304v78l142 130q42 38 42 80q0 23 -17.5 40t-47.5 17q-29 0 -46.5 -18.5t-17.5 -41.5h-59q0 45 32.5 82t91.5 37q60 0 94.5 -34.5t34.5 -80.5q0 -63 -58 -114l-129 -115v-4h193v-56h-255z" />
    <glyph glyph-name="uni00B3" unicode="&#xb3;" horiz-adv-x="386" 
d="M187 296q-57 0 -92 36.5t-35 82.5h60q5 -61 67 -61q33 0 53 17t20 50q0 30 -20.5 47.5t-52.5 17.5h-50v71l114 82v4h-173v57h235v-83l-114 -78v-3h9q53 0 85.5 -35.5t32.5 -79.5q0 -54 -38.5 -89.5t-100.5 -35.5z" />
    <glyph glyph-name="acute" unicode="&#xb4;" horiz-adv-x="252" 
d="M50 610l60 133h92l-89 -133h-63z" />
    <glyph glyph-name="paragraph" unicode="&#xb6;" horiz-adv-x="591" 
d="M258 -45v374q-79 1 -133.5 55t-54.5 131t54 131t131 54h271v-69h-66v-676h-69v676h-65v-676h-68z" />
    <glyph glyph-name="periodcentered" unicode="&#xb7;" horiz-adv-x="273" 
d="M136 257q-23 0 -39.5 17t-16.5 40t16.5 39.5t39.5 16.5t40 -16.5t17 -39.5t-17 -40t-40 -17z" />
    <glyph glyph-name="cedilla" unicode="&#xb8;" horiz-adv-x="190" 
d="M50 -182l24 182h66l-16 -182h-74z" />
    <glyph glyph-name="uni00B9" unicode="&#xb9;" horiz-adv-x="352" 
d="M76 304v59h78v275h-6l-88 -47v65l83 44h75v-337h74v-59h-216z" />
    <glyph glyph-name="ordmasculine" unicode="&#xba;" horiz-adv-x="531" 
d="M266 300q-89 0 -147.5 58t-58.5 147q0 90 59 149t148 59q88 0 146 -59t58 -148q0 -88 -58.5 -147t-146.5 -59zM266 357q61 0 100.5 42.5t39.5 106.5t-39.5 106t-100.5 42q-62 0 -101.5 -42.5t-39.5 -106.5t39.5 -106t101.5 -42z" />
    <glyph glyph-name="guillemotright" unicode="&#xbb;" horiz-adv-x="491" 
d="M65 109l124 180v6l-124 181h77l124 -177v-14l-124 -176h-77zM225 109l124 180v6l-124 181h77l124 -177v-14l-124 -176h-77z" />
    <glyph glyph-name="onequarter" unicode="&#xbc;" horiz-adv-x="854" 
d="M209 -41l389 782h73l-389 -782h-73zM76 304v59h78v275h-6l-88 -47v65l83 44h75v-337h74v-59h-216zM677 0v93h-194v70l170 233h88v-246h53v-57h-53v-93h-64zM545 150h132v184h-3l-129 -180v-4z" />
    <glyph glyph-name="onehalf" unicode="&#xbd;" horiz-adv-x="879" 
d="M209 -41l389 782h73l-389 -782h-73zM76 304v59h78v275h-6l-88 -47v65l83 44h75v-337h74v-59h-216zM564 0v78l142 130q42 38 42 80q0 23 -17.5 40t-47.5 17q-29 0 -46.5 -18.5t-17.5 -41.5h-59q0 45 32.5 82t91.5 37q60 0 94.5 -34.5t34.5 -80.5q0 -63 -58 -114l-129 -115
v-4h193v-56h-255z" />
    <glyph glyph-name="threequarters" unicode="&#xbe;" horiz-adv-x="865" 
d="M220 -41l389 782h73l-389 -782h-73zM187 296q-57 0 -92 36.5t-35 82.5h60q5 -61 67 -61q33 0 53 17t20 50q0 30 -20.5 47.5t-52.5 17.5h-50v71l114 82v4h-173v57h235v-83l-114 -78v-3h9q53 0 85.5 -35.5t32.5 -79.5q0 -54 -38.5 -89.5t-100.5 -35.5zM688 0v93h-194v70
l170 233h88v-246h53v-57h-53v-93h-64zM556 150h132v184h-3l-129 -180v-4z" />
    <glyph glyph-name="questiondown" unicode="&#xbf;" horiz-adv-x="542" 
d="M286 448q-23 0 -39.5 16.5t-16.5 39.5t16.5 39.5t39.5 16.5t40 -16.5t17 -39.5t-17 -39.5t-40 -16.5zM272 -166q-91 0 -146.5 54t-55.5 133q0 57 23.5 92t64.5 63l59 41q18 12 25 24t7 33v97h78v-97q0 -41 -14 -64.5t-47 -46.5l-49 -34q-35 -25 -50 -46.5t-15 -58.5
q0 -52 32 -85t88 -33q57 0 91.5 35.5t34.5 90.5h74q0 -79 -52.5 -138.5t-147.5 -59.5z" />
    <glyph glyph-name="Agrave" unicode="&#xc0;" horiz-adv-x="674" 
d="M389 790h-63l-89 133h92zM569 0l-61 166h-342l-61 -166h-85l261 700h115l258 -700h-85zM193 240h288l-141 386h-6z" />
    <glyph glyph-name="Aacute" unicode="&#xc1;" horiz-adv-x="674" 
d="M453 923l-89 -133h-63l60 133h92zM569 0l-61 166h-342l-61 -166h-85l261 700h115l258 -700h-85zM193 240h288l-141 386h-6z" />
    <glyph glyph-name="Acircumflex" unicode="&#xc2;" horiz-adv-x="674" 
d="M338 862l-58 -72h-75l94 130h84l94 -130h-74l-59 72h-6zM569 0l-61 166h-342l-61 -166h-85l261 700h115l258 -700h-85zM193 240h288l-141 386h-6z" />
    <glyph glyph-name="Atilde" unicode="&#xc3;" horiz-adv-x="674" 
d="M279 849q-38 0 -38 -54h-60q0 55 27 86.5t70 31.5q27 0 68 -27t57 -27q38 0 38 54h59q0 -55 -26.5 -87t-68.5 -32q-28 0 -68 27.5t-58 27.5zM569 0l-61 166h-342l-61 -166h-85l261 700h115l258 -700h-85zM193 240h288l-141 386h-6z" />
    <glyph glyph-name="Adieresis" unicode="&#xc4;" horiz-adv-x="674" 
d="M255 802q-22 0 -37 15t-15 37t15 37t37 15q23 0 37.5 -15t14.5 -37q0 -23 -14.5 -37.5t-37.5 -14.5zM423 802q-23 0 -37.5 14.5t-14.5 37.5t14.5 37.5t37.5 14.5q22 0 37 -15t15 -37t-15 -37t-37 -15zM569 0l-61 166h-342l-61 -166h-85l261 700h115l258 -700h-85z
M193 240h288l-141 386h-6z" />
    <glyph glyph-name="Aring" unicode="&#xc5;" horiz-adv-x="674" 
d="M342 765q-40 0 -66 25.5t-26 63.5q0 39 26 64t65 25q41 0 67 -25t26 -63q0 -39 -26 -64.5t-66 -25.5zM341 895q-18 0 -28.5 -11t-10.5 -30t10.5 -30t29.5 -11t29.5 11t10.5 31q0 18 -11 29t-30 11zM569 0l-61 166h-342l-61 -166h-85l261 700h115l258 -700h-85zM193 240
h288l-141 386h-6z" />
    <glyph glyph-name="AE" unicode="&#xc6;" horiz-adv-x="898" 
d="M20 0l373 700h444v-74h-318v-233h264v-73h-264v-247h329v-73h-410v166h-243l-87 -166h-88zM233 240h205v386h-6z" />
    <glyph glyph-name="Ccedilla" unicode="&#xc7;" horiz-adv-x="774" 
d="M405 63q81 0 144.5 41t89.5 110h90q-31 -94 -108.5 -154.5t-180.5 -70.5l-15 -171h-74l22 170q-141 11 -232 113t-91 249q0 155 101.5 259t253.5 104q115 0 202 -63t122 -164h-90q-28 69 -91 110t-143 41q-116 0 -193.5 -82t-77.5 -205q0 -124 77 -205.5t194 -81.5z" />
    <glyph glyph-name="Egrave" unicode="&#xc8;" horiz-adv-x="560" 
d="M293 790l-89 133h92l60 -133h-63zM100 0v700h399v-74h-318v-233h274v-73h-274v-247h329v-73h-410z" />
    <glyph glyph-name="Eacute" unicode="&#xc9;" horiz-adv-x="560" 
d="M268 790l60 133h92l-89 -133h-63zM100 0v700h399v-74h-318v-233h274v-73h-274v-247h329v-73h-410z" />
    <glyph glyph-name="Ecircumflex" unicode="&#xca;" horiz-adv-x="560" 
d="M172 790l94 130h84l94 -130h-74l-59 72h-6l-58 -72h-75zM100 0v700h399v-74h-318v-233h274v-73h-274v-247h329v-73h-410z" />
    <glyph glyph-name="Edieresis" unicode="&#xcb;" horiz-adv-x="560" 
d="M222 802q-22 0 -37 15t-15 37t15 37t37 15q23 0 37.5 -15t14.5 -37q0 -23 -14.5 -37.5t-37.5 -14.5zM390 802q-23 0 -37.5 14.5t-14.5 37.5t14.5 37.5t37.5 14.5q22 0 37 -15t15 -37t-15 -37t-37 -15zM100 0v700h399v-74h-318v-233h274v-73h-274v-247h329v-73h-410z" />
    <glyph glyph-name="Igrave" unicode="&#xcc;" horiz-adv-x="469" 
d="M222 790l-89 133h92l60 -133h-63zM90 0v70h104v560h-104v70h289v-70h-104v-560h104v-70h-289z" />
    <glyph glyph-name="Iacute" unicode="&#xcd;" horiz-adv-x="469" 
d="M197 790l60 133h92l-89 -133h-63zM90 0v70h104v560h-104v70h289v-70h-104v-560h104v-70h-289z" />
    <glyph glyph-name="Icircumflex" unicode="&#xce;" horiz-adv-x="469" 
d="M101 790l94 130h84l94 -130h-74l-59 72h-6l-58 -72h-75zM90 0v70h104v560h-104v70h289v-70h-104v-560h104v-70h-289z" />
    <glyph glyph-name="Idieresis" unicode="&#xcf;" horiz-adv-x="469" 
d="M151 802q-22 0 -37 15t-15 37t15 37t37 15q23 0 37.5 -15t14.5 -37q0 -23 -14.5 -37.5t-37.5 -14.5zM319 802q-23 0 -37.5 14.5t-14.5 37.5t14.5 37.5t37.5 14.5q22 0 37 -15t15 -37t-15 -37t-37 -15zM90 0v70h104v560h-104v70h289v-70h-104v-560h104v-70h-289z" />
    <glyph glyph-name="Eth" unicode="&#xd0;" horiz-adv-x="735" 
d="M339 700q163 0 254.5 -96.5t91.5 -253.5q0 -164 -90.5 -257t-255.5 -93h-259v69h66v249h-58v72h58v241h-66v69h259zM339 72q125 0 194 73t69 205q0 128 -69 202.5t-194 74.5h-112v-237h145v-72h-145v-246h112z" />
    <glyph glyph-name="Ntilde" unicode="&#xd1;" horiz-adv-x="735" 
d="M446 794q-28 0 -68 27.5t-58 27.5q-38 0 -38 -54h-60q0 55 27 86.5t70 31.5q27 0 68 -27t57 -27q38 0 38 54h59q0 -55 -26.5 -87t-68.5 -32zM100 0v700h133l316 -626h6v626h80v-700h-136l-312 626h-6v-626h-81z" />
    <glyph glyph-name="Ograve" unicode="&#xd2;" 
d="M390 790l-89 133h92l60 -133h-63zM406 -13q-152 0 -254 103.5t-102 259.5q0 155 102.5 259t254.5 104t254.5 -104.5t102.5 -258.5q0 -155 -102.5 -259t-255.5 -104zM407 63q117 0 195 81.5t78 205.5q0 123 -78.5 205t-194.5 82t-194.5 -82t-78.5 -205q0 -124 78 -205.5
t195 -81.5z" />
    <glyph glyph-name="Oacute" unicode="&#xd3;" 
d="M365 790l60 133h92l-89 -133h-63zM406 -13q-152 0 -254 103.5t-102 259.5q0 155 102.5 259t254.5 104t254.5 -104.5t102.5 -258.5q0 -155 -102.5 -259t-255.5 -104zM407 63q117 0 195 81.5t78 205.5q0 123 -78.5 205t-194.5 82t-194.5 -82t-78.5 -205q0 -124 78 -205.5
t195 -81.5z" />
    <glyph glyph-name="Ocircumflex" unicode="&#xd4;" 
d="M269 790l94 130h84l94 -130h-74l-59 72h-6l-58 -72h-75zM406 -13q-152 0 -254 103.5t-102 259.5q0 155 102.5 259t254.5 104t254.5 -104.5t102.5 -258.5q0 -155 -102.5 -259t-255.5 -104zM407 63q117 0 195 81.5t78 205.5q0 123 -78.5 205t-194.5 82t-194.5 -82
t-78.5 -205q0 -124 78 -205.5t195 -81.5z" />
    <glyph glyph-name="Otilde" unicode="&#xd5;" 
d="M469 794q-28 0 -68 27.5t-58 27.5q-38 0 -38 -54h-60q0 55 27 86.5t70 31.5q27 0 68 -27t57 -27q38 0 38 54h59q0 -55 -26.5 -87t-68.5 -32zM406 -13q-152 0 -254 103.5t-102 259.5q0 155 102.5 259t254.5 104t254.5 -104.5t102.5 -258.5q0 -155 -102.5 -259t-255.5 -104
zM407 63q117 0 195 81.5t78 205.5q0 123 -78.5 205t-194.5 82t-194.5 -82t-78.5 -205q0 -124 78 -205.5t195 -81.5z" />
    <glyph glyph-name="Odieresis" unicode="&#xd6;" 
d="M319 802q-22 0 -37 15t-15 37t15 37t37 15q23 0 37.5 -15t14.5 -37q0 -23 -14.5 -37.5t-37.5 -14.5zM487 802q-23 0 -37.5 14.5t-14.5 37.5t14.5 37.5t37.5 14.5q22 0 37 -15t15 -37t-15 -37t-37 -15zM406 -13q-152 0 -254 103.5t-102 259.5q0 155 102.5 259t254.5 104
t254.5 -104.5t102.5 -258.5q0 -155 -102.5 -259t-255.5 -104zM407 63q117 0 195 81.5t78 205.5q0 123 -78.5 205t-194.5 82t-194.5 -82t-78.5 -205q0 -124 78 -205.5t195 -81.5z" />
    <glyph glyph-name="multiply" unicode="&#xd7;" horiz-adv-x="446" 
d="M394 76l-172 185l-170 -184l-47 47l171 184l-171 185l47 48l171 -184l171 184l46 -47l-172 -185l173 -186z" />
    <glyph glyph-name="Oslash" unicode="&#xd8;" 
d="M663 607q101 -104 101 -257q0 -155 -102.5 -259t-255.5 -104q-103 0 -190 52l-54 -69l-60 50l53 67q-105 105 -105 263q0 155 102.5 259t254.5 104q107 0 196 -57l49 63l60 -50zM134 350q0 -118 72 -198l348 442q-65 43 -147 43q-116 0 -194.5 -82t-78.5 -205zM407 63
q117 0 195 81.5t78 205.5q0 113 -67 193l-347 -441q62 -39 141 -39z" />
    <glyph glyph-name="Ugrave" unicode="&#xd9;" horiz-adv-x="702" 
d="M335 790l-89 133h92l60 -133h-63zM351 -13q-124 0 -192.5 71.5t-68.5 192.5v449h81v-448q0 -89 46.5 -139.5t133.5 -50.5t134 51t47 140v447h80v-448q0 -120 -69 -192.5t-192 -72.5z" />
    <glyph glyph-name="Uacute" unicode="&#xda;" horiz-adv-x="702" 
d="M310 790l60 133h92l-89 -133h-63zM351 -13q-124 0 -192.5 71.5t-68.5 192.5v449h81v-448q0 -89 46.5 -139.5t133.5 -50.5t134 51t47 140v447h80v-448q0 -120 -69 -192.5t-192 -72.5z" />
    <glyph glyph-name="Ucircumflex" unicode="&#xdb;" horiz-adv-x="702" 
d="M214 790l94 130h84l94 -130h-74l-59 72h-6l-58 -72h-75zM351 -13q-124 0 -192.5 71.5t-68.5 192.5v449h81v-448q0 -89 46.5 -139.5t133.5 -50.5t134 51t47 140v447h80v-448q0 -120 -69 -192.5t-192 -72.5z" />
    <glyph glyph-name="Udieresis" unicode="&#xdc;" horiz-adv-x="702" 
d="M264 802q-22 0 -37 15t-15 37t15 37t37 15q23 0 37.5 -15t14.5 -37q0 -23 -14.5 -37.5t-37.5 -14.5zM432 802q-23 0 -37.5 14.5t-14.5 37.5t14.5 37.5t37.5 14.5q22 0 37 -15t15 -37t-15 -37t-37 -15zM351 -13q-124 0 -192.5 71.5t-68.5 192.5v449h81v-448
q0 -89 46.5 -139.5t133.5 -50.5t134 51t47 140v447h80v-448q0 -120 -69 -192.5t-192 -72.5z" />
    <glyph glyph-name="Yacute" unicode="&#xdd;" horiz-adv-x="596" 
d="M267 790l60 133h92l-89 -133h-63zM258 0v309l-238 391h91l182 -311h6l182 311h95l-238 -391v-309h-80z" />
    <glyph glyph-name="Thorn" unicode="&#xde;" horiz-adv-x="585" 
d="M100 0v700h81v-137h150q96 0 155 -57.5t59 -152.5q0 -94 -60.5 -153.5t-153.5 -59.5h-150v-140h-81zM181 212h143q62 0 100 39.5t38 101.5q0 61 -38 99.5t-100 38.5h-143v-279z" />
    <glyph glyph-name="germandbls" unicode="&#xdf;" horiz-adv-x="602" 
d="M90 0v599q0 76 42 113.5t116 37.5h258v-101l-180 -196v-6q88 0 157 -59.5t69 -161.5q0 -104 -72 -165t-179 -61h-57v70h54q76 0 124.5 39.5t48.5 116.5t-48.5 116t-124.5 39h-54v81l188 210v6h-185q-41 0 -59.5 -19t-18.5 -61v-598h-79z" />
    <glyph glyph-name="agrave" unicode="&#xe0;" horiz-adv-x="671" 
d="M306 610l-89 133h92l60 -133h-63zM304 -13q-112 0 -183 76.5t-71 195.5q0 121 69 197.5t179 76.5q70 0 114.5 -32t62.5 -65h6v84h80v-426q0 -24 26 -24h24v-70h-51q-32 0 -53.5 21.5t-22.5 55.5v5h-6q-59 -95 -174 -95zM308 58q80 0 128 58t48 142q0 94 -50.5 148.5
t-126.5 54.5q-77 0 -126.5 -57t-49.5 -146t50.5 -144.5t126.5 -55.5z" />
    <glyph glyph-name="aacute" unicode="&#xe1;" horiz-adv-x="671" 
d="M281 610l60 133h92l-89 -133h-63zM304 -13q-112 0 -183 76.5t-71 195.5q0 121 69 197.5t179 76.5q70 0 114.5 -32t62.5 -65h6v84h80v-426q0 -24 26 -24h24v-70h-51q-32 0 -53.5 21.5t-22.5 55.5v5h-6q-59 -95 -174 -95zM308 58q80 0 128 58t48 142q0 94 -50.5 148.5
t-126.5 54.5q-77 0 -126.5 -57t-49.5 -146t50.5 -144.5t126.5 -55.5z" />
    <glyph glyph-name="acircumflex" unicode="&#xe2;" horiz-adv-x="671" 
d="M185 610l94 130h84l94 -130h-74l-59 72h-6l-58 -72h-75zM304 -13q-112 0 -183 76.5t-71 195.5q0 121 69 197.5t179 76.5q70 0 114.5 -32t62.5 -65h6v84h80v-426q0 -24 26 -24h24v-70h-51q-32 0 -53.5 21.5t-22.5 55.5v5h-6q-59 -95 -174 -95zM308 58q80 0 128 58t48 142
q0 94 -50.5 148.5t-126.5 54.5q-77 0 -126.5 -57t-49.5 -146t50.5 -144.5t126.5 -55.5z" />
    <glyph glyph-name="atilde" unicode="&#xe3;" horiz-adv-x="671" 
d="M385 614q-28 0 -68 27.5t-58 27.5q-38 0 -38 -54h-60q0 55 27 86.5t70 31.5q27 0 68 -27t57 -27q38 0 38 54h59q0 -55 -26.5 -87t-68.5 -32zM304 -13q-112 0 -183 76.5t-71 195.5q0 121 69 197.5t179 76.5q70 0 114.5 -32t62.5 -65h6v84h80v-426q0 -24 26 -24h24v-70h-51
q-32 0 -53.5 21.5t-22.5 55.5v5h-6q-59 -95 -174 -95zM308 58q80 0 128 58t48 142q0 94 -50.5 148.5t-126.5 54.5q-77 0 -126.5 -57t-49.5 -146t50.5 -144.5t126.5 -55.5z" />
    <glyph glyph-name="adieresis" unicode="&#xe4;" horiz-adv-x="671" 
d="M235 622q-22 0 -37 15t-15 37t15 37t37 15q23 0 37.5 -15t14.5 -37q0 -23 -14.5 -37.5t-37.5 -14.5zM403 622q-23 0 -37.5 14.5t-14.5 37.5t14.5 37.5t37.5 14.5q22 0 37 -15t15 -37t-15 -37t-37 -15zM304 -13q-112 0 -183 76.5t-71 195.5q0 121 69 197.5t179 76.5
q70 0 114.5 -32t62.5 -65h6v84h80v-426q0 -24 26 -24h24v-70h-51q-32 0 -53.5 21.5t-22.5 55.5v5h-6q-59 -95 -174 -95zM308 58q80 0 128 58t48 142q0 94 -50.5 148.5t-126.5 54.5q-77 0 -126.5 -57t-49.5 -146t50.5 -144.5t126.5 -55.5z" />
    <glyph glyph-name="aring" unicode="&#xe5;" horiz-adv-x="671" 
d="M322 585q-40 0 -66 25.5t-26 63.5q0 39 26 64t65 25q41 0 67 -25t26 -63q0 -39 -26 -64.5t-66 -25.5zM322 633q19 0 29.5 11t10.5 31q0 18 -11 29t-30 11q-18 0 -28.5 -11t-10.5 -30t10.5 -30t29.5 -11zM304 -13q-112 0 -183 76.5t-71 195.5q0 121 69 197.5t179 76.5
q70 0 114.5 -32t62.5 -65h6v84h80v-426q0 -24 26 -24h24v-70h-51q-32 0 -53.5 21.5t-22.5 55.5v5h-6q-59 -95 -174 -95zM308 58q80 0 128 58t48 142q0 94 -50.5 148.5t-126.5 54.5q-77 0 -126.5 -57t-49.5 -146t50.5 -144.5t126.5 -55.5z" />
    <glyph glyph-name="ae" unicode="&#xe6;" horiz-adv-x="961" 
d="M243 -13q-87 0 -140 43t-53 115q0 70 50.5 113.5t139.5 43.5h174v38q0 53 -37 86t-101 33q-61 0 -96.5 -30t-43.5 -79l-71 18q9 73 65 119t147 46q136 0 189 -99h6q64 99 192 99q116 0 181.5 -73.5t65.5 -192.5v-35h-418q0 -81 49.5 -128t127.5 -47q56 0 100.5 30.5
t56.5 83.5l77 -18q-22 -75 -84.5 -120.5t-150.5 -45.5q-155 0 -214 114h-6q-56 -114 -206 -114zM495 302h335q-4 77 -51 118.5t-115 41.5q-66 0 -115.5 -44.5t-53.5 -115.5zM252 60q78 0 120 46.5t42 106.5v19h-167q-56 0 -86 -23t-30 -64q0 -38 32.5 -61.5t88.5 -23.5z" />
    <glyph glyph-name="ccedilla" unicode="&#xe7;" horiz-adv-x="609" 
d="M559 171q-18 -76 -74.5 -124t-131.5 -58l-15 -171h-74l22 171q-105 10 -170.5 86.5t-65.5 184.5q0 116 76 194.5t190 78.5q87 0 153.5 -49.5t87.5 -134.5l-78 -18q-10 58 -55 94t-106 36q-82 0 -134 -57.5t-52 -143.5q0 -88 53 -144.5t135 -56.5q61 0 106 36t55 94z" />
    <glyph glyph-name="egrave" unicode="&#xe8;" horiz-adv-x="599" 
d="M287 610l-89 133h92l60 -133h-63zM307 -13q-117 0 -187 75t-70 196q0 122 73 198.5t179 76.5q116 0 181.5 -73.5t65.5 -192.5v-29h-418q1 -86 48 -133.5t129 -47.5q56 0 100.5 30.5t56.5 83.5l77 -18q-22 -75 -84.5 -120.5t-150.5 -45.5zM133 302h335q-4 77 -51 118.5
t-115 41.5q-66 0 -115.5 -44.5t-53.5 -115.5z" />
    <glyph glyph-name="eacute" unicode="&#xe9;" horiz-adv-x="599" 
d="M262 610l60 133h92l-89 -133h-63zM307 -13q-117 0 -187 75t-70 196q0 122 73 198.5t179 76.5q116 0 181.5 -73.5t65.5 -192.5v-29h-418q1 -86 48 -133.5t129 -47.5q56 0 100.5 30.5t56.5 83.5l77 -18q-22 -75 -84.5 -120.5t-150.5 -45.5zM133 302h335q-4 77 -51 118.5
t-115 41.5q-66 0 -115.5 -44.5t-53.5 -115.5z" />
    <glyph glyph-name="ecircumflex" unicode="&#xea;" horiz-adv-x="599" 
d="M166 610l94 130h84l94 -130h-74l-59 72h-6l-58 -72h-75zM307 -13q-117 0 -187 75t-70 196q0 122 73 198.5t179 76.5q116 0 181.5 -73.5t65.5 -192.5v-29h-418q1 -86 48 -133.5t129 -47.5q56 0 100.5 30.5t56.5 83.5l77 -18q-22 -75 -84.5 -120.5t-150.5 -45.5zM133 302
h335q-4 77 -51 118.5t-115 41.5q-66 0 -115.5 -44.5t-53.5 -115.5z" />
    <glyph glyph-name="edieresis" unicode="&#xeb;" horiz-adv-x="599" 
d="M216 622q-22 0 -37 15t-15 37t15 37t37 15q23 0 37.5 -15t14.5 -37q0 -23 -14.5 -37.5t-37.5 -14.5zM384 622q-23 0 -37.5 14.5t-14.5 37.5t14.5 37.5t37.5 14.5q22 0 37 -15t15 -37t-15 -37t-37 -15zM307 -13q-117 0 -187 75t-70 196q0 122 73 198.5t179 76.5
q116 0 181.5 -73.5t65.5 -192.5v-29h-418q1 -86 48 -133.5t129 -47.5q56 0 100.5 30.5t56.5 83.5l77 -18q-22 -75 -84.5 -120.5t-150.5 -45.5zM133 302h335q-4 77 -51 118.5t-115 41.5q-66 0 -115.5 -44.5t-53.5 -115.5z" />
    <glyph glyph-name="igrave" unicode="&#xec;" horiz-adv-x="327" 
d="M153 610l-89 133h92l60 -133h-63zM158 0v453h-98v67h177v-520h-79z" />
    <glyph glyph-name="iacute" unicode="&#xed;" horiz-adv-x="327" 
d="M128 610l60 133h92l-89 -133h-63zM158 0v453h-98v67h177v-520h-79z" />
    <glyph glyph-name="icircumflex" unicode="&#xee;" horiz-adv-x="327" 
d="M32 610l94 130h84l94 -130h-74l-59 72h-6l-58 -72h-75zM158 0v453h-98v67h177v-520h-79z" />
    <glyph glyph-name="idieresis" unicode="&#xef;" horiz-adv-x="327" 
d="M82 622q-22 0 -37 15t-15 37t15 37t37 15q23 0 37.5 -15t14.5 -37q0 -23 -14.5 -37.5t-37.5 -14.5zM250 622q-23 0 -37.5 14.5t-14.5 37.5t14.5 37.5t37.5 14.5q22 0 37 -15t15 -37t-15 -37t-37 -15zM158 0v453h-98v67h177v-520h-79z" />
    <glyph glyph-name="eth" unicode="&#xf0;" horiz-adv-x="617" 
d="M305 -13q-113 0 -184 75t-71 186t71.5 182.5t177.5 71.5q72 0 115 -36h6q-22 32 -56 66.5t-59 50.5l-161 -63v61l108 44q-48 34 -109 66l51 39q68 -30 136 -77l133 52v-62l-82 -33q186 -149 186 -342q0 -122 -68.5 -201.5t-193.5 -79.5zM306 58q87 0 133.5 57.5
t46.5 144.5q0 73 -49 124t-125 51q-83 0 -132 -53.5t-49 -133.5t48.5 -135t126.5 -55z" />
    <glyph glyph-name="ntilde" unicode="&#xf1;" horiz-adv-x="608" 
d="M387 614q-28 0 -68 27.5t-58 27.5q-38 0 -38 -54h-60q0 55 27 86.5t70 31.5q27 0 68 -27t57 -27q38 0 38 54h59q0 -55 -26.5 -87t-68.5 -32zM90 0v520h79v-76h6q18 38 59.5 63.5t99.5 25.5q89 0 141.5 -58.5t52.5 -147.5v-327h-79v322q0 61 -39 99t-95 38
q-62 0 -104 -42.5t-42 -106.5v-310h-79z" />
    <glyph glyph-name="ograve" unicode="&#xf2;" horiz-adv-x="643" 
d="M306 610l-89 133h92l60 -133h-63zM321 -13q-117 0 -194 77.5t-77 195.5t78 195.5t194 77.5q117 0 194 -78t77 -195t-77.5 -195t-194.5 -78zM321 59q84 0 137.5 57t53.5 144t-53.5 144t-137.5 57q-83 0 -136.5 -57.5t-53.5 -143.5q0 -88 53.5 -144.5t136.5 -56.5z" />
    <glyph glyph-name="oacute" unicode="&#xf3;" horiz-adv-x="643" 
d="M281 610l60 133h92l-89 -133h-63zM321 -13q-117 0 -194 77.5t-77 195.5t78 195.5t194 77.5q117 0 194 -78t77 -195t-77.5 -195t-194.5 -78zM321 59q84 0 137.5 57t53.5 144t-53.5 144t-137.5 57q-83 0 -136.5 -57.5t-53.5 -143.5q0 -88 53.5 -144.5t136.5 -56.5z" />
    <glyph glyph-name="ocircumflex" unicode="&#xf4;" horiz-adv-x="643" 
d="M185 610l94 130h84l94 -130h-74l-59 72h-6l-58 -72h-75zM321 -13q-117 0 -194 77.5t-77 195.5t78 195.5t194 77.5q117 0 194 -78t77 -195t-77.5 -195t-194.5 -78zM321 59q84 0 137.5 57t53.5 144t-53.5 144t-137.5 57q-83 0 -136.5 -57.5t-53.5 -143.5q0 -88 53.5 -144.5
t136.5 -56.5z" />
    <glyph glyph-name="otilde" unicode="&#xf5;" horiz-adv-x="643" 
d="M385 614q-28 0 -68 27.5t-58 27.5q-38 0 -38 -54h-60q0 55 27 86.5t70 31.5q27 0 68 -27t57 -27q38 0 38 54h59q0 -55 -26.5 -87t-68.5 -32zM321 -13q-117 0 -194 77.5t-77 195.5t78 195.5t194 77.5q117 0 194 -78t77 -195t-77.5 -195t-194.5 -78zM321 59q84 0 137.5 57
t53.5 144t-53.5 144t-137.5 57q-83 0 -136.5 -57.5t-53.5 -143.5q0 -88 53.5 -144.5t136.5 -56.5z" />
    <glyph glyph-name="odieresis" unicode="&#xf6;" horiz-adv-x="643" 
d="M235 622q-22 0 -37 15t-15 37t15 37t37 15q23 0 37.5 -15t14.5 -37q0 -23 -14.5 -37.5t-37.5 -14.5zM403 622q-23 0 -37.5 14.5t-14.5 37.5t14.5 37.5t37.5 14.5q22 0 37 -15t15 -37t-15 -37t-37 -15zM321 -13q-117 0 -194 77.5t-77 195.5t78 195.5t194 77.5
q117 0 194 -78t77 -195t-77.5 -195t-194.5 -78zM321 59q84 0 137.5 57t53.5 144t-53.5 144t-137.5 57q-83 0 -136.5 -57.5t-53.5 -143.5q0 -88 53.5 -144.5t136.5 -56.5z" />
    <glyph glyph-name="divide" unicode="&#xf7;" horiz-adv-x="480" 
d="M240 435q-21 0 -36 14.5t-15 35.5t15 36t36 15t35.5 -15t14.5 -36t-14.5 -35.5t-35.5 -14.5zM5 278v67h470v-67h-470zM240 87q-21 0 -36 15t-15 35q0 21 15 36t36 15t35.5 -15t14.5 -36q0 -20 -14.5 -35t-35.5 -15z" />
    <glyph glyph-name="oslash" unicode="&#xf8;" horiz-adv-x="643" 
d="M516 455q77 -77 77 -195q0 -117 -77.5 -195t-194.5 -78q-80 0 -142 37l-38 -48l-46 36l37 47q-82 79 -82 201q0 118 78 195.5t194 77.5q83 0 148 -41l38 48l46 -37zM131 260q0 -84 49 -139l244 311q-44 29 -103 29q-83 0 -136.5 -57.5t-53.5 -143.5zM321 59
q84 0 137.5 57t53.5 144q0 78 -44 133l-243 -310q45 -24 96 -24z" />
    <glyph glyph-name="ugrave" unicode="&#xf9;" horiz-adv-x="598" 
d="M287 610l-89 133h92l60 -133h-63zM274 -13q-89 0 -141.5 58.5t-52.5 147.5v327h79v-324q0 -61 39 -99t95 -38q62 0 104 42.5t42 106.5v312h79v-520h-79v76h-6q-18 -38 -59.5 -63.5t-99.5 -25.5z" />
    <glyph glyph-name="uacute" unicode="&#xfa;" horiz-adv-x="598" 
d="M262 610l60 133h92l-89 -133h-63zM274 -13q-89 0 -141.5 58.5t-52.5 147.5v327h79v-324q0 -61 39 -99t95 -38q62 0 104 42.5t42 106.5v312h79v-520h-79v76h-6q-18 -38 -59.5 -63.5t-99.5 -25.5z" />
    <glyph glyph-name="ucircumflex" unicode="&#xfb;" horiz-adv-x="598" 
d="M166 610l94 130h84l94 -130h-74l-59 72h-6l-58 -72h-75zM274 -13q-89 0 -141.5 58.5t-52.5 147.5v327h79v-324q0 -61 39 -99t95 -38q62 0 104 42.5t42 106.5v312h79v-520h-79v76h-6q-18 -38 -59.5 -63.5t-99.5 -25.5z" />
    <glyph glyph-name="udieresis" unicode="&#xfc;" horiz-adv-x="598" 
d="M216 622q-22 0 -37 15t-15 37t15 37t37 15q23 0 37.5 -15t14.5 -37q0 -23 -14.5 -37.5t-37.5 -14.5zM384 622q-23 0 -37.5 14.5t-14.5 37.5t14.5 37.5t37.5 14.5q22 0 37 -15t15 -37t-15 -37t-37 -15zM274 -13q-89 0 -141.5 58.5t-52.5 147.5v327h79v-324q0 -61 39 -99
t95 -38q62 0 104 42.5t42 106.5v312h79v-520h-79v76h-6q-18 -38 -59.5 -63.5t-99.5 -25.5z" />
    <glyph glyph-name="yacute" unicode="&#xfd;" horiz-adv-x="556" 
d="M243 610l60 133h92l-89 -133h-63zM60 -230v72h58q35 0 55 14.5t32 46.5l37 97h-21l-191 520h88l152 -444h6l161 444h89l-253 -652q-20 -51 -57.5 -74.5t-100.5 -23.5h-55z" />
    <glyph glyph-name="thorn" unicode="&#xfe;" horiz-adv-x="652" 
d="M91 -233l-1 983h79v-312h6q62 95 175 95q111 0 181.5 -76.5t70.5 -195.5q0 -121 -69 -197.5t-179 -76.5q-72 0 -115.5 31t-62.5 66h-6v-317h-79zM345 59q77 0 126.5 56.5t49.5 145.5q0 90 -50.5 145t-127.5 55q-79 0 -127.5 -58t-48.5 -142q0 -93 51 -147.5t127 -54.5z
" />
    <glyph glyph-name="ydieresis" unicode="&#xff;" horiz-adv-x="556" 
d="M197 622q-22 0 -37 15t-15 37t15 37t37 15q23 0 37.5 -15t14.5 -37q0 -23 -14.5 -37.5t-37.5 -14.5zM365 622q-23 0 -37.5 14.5t-14.5 37.5t14.5 37.5t37.5 14.5q22 0 37 -15t15 -37t-15 -37t-37 -15zM60 -230v72h58q35 0 55 14.5t32 46.5l37 97h-21l-191 520h88
l152 -444h6l161 444h89l-253 -652q-20 -51 -57.5 -74.5t-100.5 -23.5h-55z" />
    <glyph glyph-name="Amacron" unicode="&#x100;" horiz-adv-x="674" 
d="M463 881v-67h-242v67h242zM569 0l-61 166h-342l-61 -166h-85l261 700h115l258 -700h-85zM193 240h288l-141 386h-6z" />
    <glyph glyph-name="amacron" unicode="&#x101;" horiz-adv-x="671" 
d="M201 634v67h242v-67h-242zM304 -13q-112 0 -183 76.5t-71 195.5q0 121 69 197.5t179 76.5q70 0 114.5 -32t62.5 -65h6v84h80v-426q0 -24 26 -24h24v-70h-51q-32 0 -53.5 21.5t-22.5 55.5v5h-6q-59 -95 -174 -95zM308 58q80 0 128 58t48 142q0 94 -50.5 148.5t-126.5 54.5
q-77 0 -126.5 -57t-49.5 -146t50.5 -144.5t126.5 -55.5z" />
    <glyph glyph-name="Abreve" unicode="&#x102;" horiz-adv-x="674" 
d="M342 789q-61 0 -94 35.5t-33 90.5h63q0 -71 64 -71q33 0 48.5 19.5t15.5 51.5h63q0 -55 -33 -90.5t-94 -35.5zM569 0l-61 166h-342l-61 -166h-85l261 700h115l258 -700h-85zM193 240h288l-141 386h-6z" />
    <glyph glyph-name="abreve" unicode="&#x103;" horiz-adv-x="671" 
d="M322 609q-61 0 -94 35.5t-33 90.5h63q0 -71 64 -71q33 0 48.5 19.5t15.5 51.5h63q0 -55 -33 -90.5t-94 -35.5zM304 -13q-112 0 -183 76.5t-71 195.5q0 121 69 197.5t179 76.5q70 0 114.5 -32t62.5 -65h6v84h80v-426q0 -24 26 -24h24v-70h-51q-32 0 -53.5 21.5t-22.5 55.5
v5h-6q-59 -95 -174 -95zM308 58q80 0 128 58t48 142q0 94 -50.5 148.5t-126.5 54.5q-77 0 -126.5 -57t-49.5 -146t50.5 -144.5t126.5 -55.5z" />
    <glyph glyph-name="Aogonek" unicode="&#x104;" horiz-adv-x="674" 
d="M584 -88q0 -30 37 -30h33v-64h-48q-38 0 -66 21t-28 59q0 39 33 70l33 32h-9l-61 166h-342l-61 -166h-85l261 700h115l258 -700l-50 -50q-20 -20 -20 -38zM193 240h288l-141 386h-6z" />
    <glyph glyph-name="aogonek" unicode="&#x105;" horiz-adv-x="671" 
d="M611 0l-50 -50q-20 -20 -20 -38q0 -30 37 -30h33v-64h-48q-38 0 -66 21t-28 59q0 39 33 70l33 32h25q-32 0 -53.5 21.5t-22.5 55.5v5h-6q-59 -95 -174 -95q-112 0 -183 76.5t-71 195.5q0 121 69 197.5t179 76.5q70 0 114.5 -32t62.5 -65h6v84h80v-426q0 -24 26 -24h24
v-70zM308 58q80 0 128 58t48 142q0 94 -50.5 148.5t-126.5 54.5q-77 0 -126.5 -57t-49.5 -146t50.5 -144.5t126.5 -55.5z" />
    <glyph glyph-name="Cacute" unicode="&#x106;" horiz-adv-x="774" 
d="M363 790l60 133h92l-89 -133h-63zM404 -13q-152 0 -253 103.5t-101 259.5q0 155 101.5 259t253.5 104q115 0 202 -63t122 -164h-90q-28 69 -91 110t-143 41q-116 0 -193.5 -82t-77.5 -205q0 -124 77 -205.5t194 -81.5q81 0 144.5 41t89.5 110h90q-33 -102 -121 -164.5
t-204 -62.5z" />
    <glyph glyph-name="cacute" unicode="&#x107;" horiz-adv-x="609" 
d="M275 609l60 133h92l-89 -133h-63zM317 -13q-117 0 -192 78t-75 195q0 116 76 194.5t190 78.5q87 0 153.5 -49.5t87.5 -134.5l-78 -18q-10 58 -55 94t-106 36q-82 0 -134 -57.5t-52 -143.5q0 -88 53 -144.5t135 -56.5q61 0 106 36t55 94l78 -18q-21 -85 -88 -134.5
t-154 -49.5z" />
    <glyph glyph-name="Cdotaccent" unicode="&#x10a;" horiz-adv-x="774" 
d="M407 794q-25 0 -41 16.5t-16 41.5q0 24 16 40.5t41 16.5t41.5 -16.5t16.5 -40.5q0 -25 -16.5 -41.5t-41.5 -16.5zM404 -13q-152 0 -253 103.5t-101 259.5q0 155 101.5 259t253.5 104q115 0 202 -63t122 -164h-90q-28 69 -91 110t-143 41q-116 0 -193.5 -82t-77.5 -205
q0 -124 77 -205.5t194 -81.5q81 0 144.5 41t89.5 110h90q-33 -102 -121 -164.5t-204 -62.5z" />
    <glyph glyph-name="cdotaccent" unicode="&#x10b;" horiz-adv-x="609" 
d="M319 613q-25 0 -41 16.5t-16 41.5q0 24 16 40.5t41 16.5t41.5 -16.5t16.5 -40.5q0 -25 -16.5 -41.5t-41.5 -16.5zM317 -13q-117 0 -192 78t-75 195q0 116 76 194.5t190 78.5q87 0 153.5 -49.5t87.5 -134.5l-78 -18q-10 58 -55 94t-106 36q-82 0 -134 -57.5t-52 -143.5
q0 -88 53 -144.5t135 -56.5q61 0 106 36t55 94l78 -18q-21 -85 -88 -134.5t-154 -49.5z" />
    <glyph glyph-name="Ccaron" unicode="&#x10c;" horiz-adv-x="774" 
d="M362 790l-94 130h75l58 -72h6l59 72h74l-94 -130h-84zM404 -13q-152 0 -253 103.5t-101 259.5q0 155 101.5 259t253.5 104q115 0 202 -63t122 -164h-90q-28 69 -91 110t-143 41q-116 0 -193.5 -82t-77.5 -205q0 -124 77 -205.5t194 -81.5q81 0 144.5 41t89.5 110h90
q-33 -102 -121 -164.5t-204 -62.5z" />
    <glyph glyph-name="ccaron" unicode="&#x10d;" horiz-adv-x="609" 
d="M274 609l-94 130h75l58 -72h6l59 72h74l-94 -130h-84zM317 -13q-117 0 -192 78t-75 195q0 116 76 194.5t190 78.5q87 0 153.5 -49.5t87.5 -134.5l-78 -18q-10 58 -55 94t-106 36q-82 0 -134 -57.5t-52 -143.5q0 -88 53 -144.5t135 -56.5q61 0 106 36t55 94l78 -18
q-21 -85 -88 -134.5t-154 -49.5z" />
    <glyph glyph-name="Dcaron" unicode="&#x10e;" horiz-adv-x="735" 
d="M303 791l-94 130h75l58 -72h6l59 72h74l-94 -130h-84zM80 0v69h66v562h-66v69h254q163 0 257 -97t94 -253q0 -164 -92.5 -257t-258.5 -93h-254zM227 72h107q125 0 196.5 73.5t71.5 204.5q0 128 -71.5 202.5t-196.5 74.5h-107v-555z" />
    <glyph glyph-name="dcaron" unicode="&#x10f;" horiz-adv-x="728" 
d="M304 -13q-111 0 -182.5 76.5t-71.5 195.5q0 120 69 197t179 77q38 0 70.5 -11t54 -28t33.5 -30.5t20 -27.5h6v314h79v-750h-76v82h-6q-65 -95 -175 -95zM639 569v181h89l-24 -181h-65zM309 58q79 0 127.5 58t48.5 142q0 94 -51 148.5t-127 54.5q-77 0 -126.5 -57
t-49.5 -146t50.5 -144.5t127.5 -55.5z" />
    <glyph glyph-name="Dcroat" unicode="&#x110;" horiz-adv-x="735" 
d="M339 700q163 0 254.5 -96.5t91.5 -253.5q0 -164 -90.5 -257t-255.5 -93h-259v69h66v249h-58v72h58v241h-66v69h259zM339 72q125 0 194 73t69 205q0 128 -69 202.5t-194 74.5h-112v-237h145v-72h-145v-246h112z" />
    <glyph glyph-name="dcroat" unicode="&#x111;" horiz-adv-x="641" 
d="M629 659v-64h-68v-595h-76v82h-6q-65 -95 -175 -95q-111 0 -182.5 76.5t-71.5 195.5q0 120 69 197t179 77q38 0 70.5 -11t54 -28t33.5 -30.5t20 -27.5h6v159h-157v64h157v91h79v-91h68zM309 58q79 0 127.5 58t48.5 142q0 94 -51 148.5t-127 54.5q-77 0 -126.5 -57
t-49.5 -146t50.5 -144.5t127.5 -55.5z" />
    <glyph glyph-name="Emacron" unicode="&#x112;" horiz-adv-x="560" 
d="M188 814v67h242v-67h-242zM100 0v700h399v-74h-318v-233h274v-73h-274v-247h329v-73h-410z" />
    <glyph glyph-name="emacron" unicode="&#x113;" horiz-adv-x="599" 
d="M182 634v67h242v-67h-242zM307 -13q-117 0 -187 75t-70 196q0 122 73 198.5t179 76.5q116 0 181.5 -73.5t65.5 -192.5v-29h-418q1 -86 48 -133.5t129 -47.5q56 0 100.5 30.5t56.5 83.5l77 -18q-22 -75 -84.5 -120.5t-150.5 -45.5zM133 302h335q-4 77 -51 118.5t-115 41.5
q-66 0 -115.5 -44.5t-53.5 -115.5z" />
    <glyph glyph-name="Edotaccent" unicode="&#x116;" horiz-adv-x="560" 
d="M312 794q-25 0 -41 16.5t-16 41.5q0 24 16 40.5t41 16.5t41.5 -16.5t16.5 -40.5q0 -25 -16.5 -41.5t-41.5 -16.5zM100 0v700h399v-74h-318v-233h274v-73h-274v-247h329v-73h-410z" />
    <glyph glyph-name="edotaccent" unicode="&#x117;" horiz-adv-x="599" 
d="M306 614q-25 0 -41 16.5t-16 41.5q0 24 16 40.5t41 16.5t41.5 -16.5t16.5 -40.5q0 -25 -16.5 -41.5t-41.5 -16.5zM307 -13q-117 0 -187 75t-70 196q0 122 73 198.5t179 76.5q116 0 181.5 -73.5t65.5 -192.5v-29h-418q1 -86 48 -133.5t129 -47.5q56 0 100.5 30.5
t56.5 83.5l77 -18q-22 -75 -84.5 -120.5t-150.5 -45.5zM133 302h335q-4 77 -51 118.5t-115 41.5q-66 0 -115.5 -44.5t-53.5 -115.5z" />
    <glyph glyph-name="Eogonek" unicode="&#x118;" horiz-adv-x="560" 
d="M510 0l-50 -50q-20 -20 -20 -38q0 -30 37 -30h33v-64h-48q-38 0 -66 21t-28 59q0 39 33 70l33 32h-334v700h399v-74h-318v-233h274v-73h-274v-247h329v-73z" />
    <glyph glyph-name="eogonek" unicode="&#x119;" horiz-adv-x="599" 
d="M549 267v-29h-418q1 -86 48 -133.5t129 -47.5q56 0 100.5 30.5t56.5 83.5l77 -18q-19 -63 -68 -106.5t-118 -55.5l-41 -41q-20 -20 -20 -38q0 -30 37 -30h33v-64h-48q-38 0 -66 21t-28 59q0 39 33 70l21 20q-105 10 -166 83.5t-61 186.5q0 122 73 198.5t179 76.5
q116 0 181.5 -73.5t65.5 -192.5zM133 302h335q-4 77 -51 118.5t-115 41.5q-66 0 -115.5 -44.5t-53.5 -115.5z" />
    <glyph glyph-name="Ecaron" unicode="&#x11a;" horiz-adv-x="560" 
d="M267 790l-94 130h75l58 -72h6l59 72h74l-94 -130h-84zM100 0v700h399v-74h-318v-233h274v-73h-274v-247h329v-73h-410z" />
    <glyph glyph-name="ecaron" unicode="&#x11b;" horiz-adv-x="599" 
d="M261 610l-94 130h75l58 -72h6l59 72h74l-94 -130h-84zM307 -13q-117 0 -187 75t-70 196q0 122 73 198.5t179 76.5q116 0 181.5 -73.5t65.5 -192.5v-29h-418q1 -86 48 -133.5t129 -47.5q56 0 100.5 30.5t56.5 83.5l77 -18q-22 -75 -84.5 -120.5t-150.5 -45.5zM133 302h335
q-4 77 -51 118.5t-115 41.5q-66 0 -115.5 -44.5t-53.5 -115.5z" />
    <glyph glyph-name="Gbreve" unicode="&#x11e;" horiz-adv-x="803" 
d="M408 789q-61 0 -94 35.5t-33 90.5h63q0 -71 64 -71q33 0 48.5 19.5t15.5 51.5h63q0 -55 -33 -90.5t-94 -35.5zM406 -13q-152 0 -254 103.5t-102 259.5q0 155 101.5 259t253.5 104q115 0 202 -63t122 -164h-90q-28 69 -91 110t-143 41q-116 0 -193.5 -82t-77.5 -205
q0 -124 78 -205.5t195 -81.5q88 0 156.5 47.5t93.5 146.5h-214v71h310q-12 -91 -45 -159t-81.5 -106.5t-103.5 -57t-117 -18.5z" />
    <glyph glyph-name="gbreve" unicode="&#x11f;" horiz-adv-x="641" 
d="M305 609q-61 0 -94 35.5t-33 90.5h63q0 -71 64 -71q33 0 48.5 19.5t15.5 51.5h63q0 -55 -33 -90.5t-94 -35.5zM178 -230v73h226q41 0 59.5 20.5t18.5 62.5v158h-6q-19 -35 -62.5 -66t-115.5 -31q-110 0 -179 76.5t-69 197.5q0 119 71.5 195.5t182.5 76.5q110 0 175 -95h6
v82h76v-602q0 -148 -158 -148h-225zM307 59q76 0 127 54.5t51 147.5q0 84 -48.5 142t-127.5 58q-77 0 -127.5 -55t-50.5 -145q0 -89 49.5 -145.5t126.5 -56.5z" />
    <glyph glyph-name="Gdotaccent" unicode="&#x120;" horiz-adv-x="803" 
d="M411 794q-25 0 -41 16.5t-16 41.5q0 24 16 40.5t41 16.5t41.5 -16.5t16.5 -40.5q0 -25 -16.5 -41.5t-41.5 -16.5zM406 -13q-152 0 -254 103.5t-102 259.5q0 155 101.5 259t253.5 104q115 0 202 -63t122 -164h-90q-28 69 -91 110t-143 41q-116 0 -193.5 -82t-77.5 -205
q0 -124 78 -205.5t195 -81.5q88 0 156.5 47.5t93.5 146.5h-214v71h310q-12 -91 -45 -159t-81.5 -106.5t-103.5 -57t-117 -18.5z" />
    <glyph glyph-name="gdotaccent" unicode="&#x121;" horiz-adv-x="641" 
d="M308 614q-25 0 -41 16.5t-16 41.5q0 24 16 40.5t41 16.5t41.5 -16.5t16.5 -40.5q0 -25 -16.5 -41.5t-41.5 -16.5zM178 -230v73h226q41 0 59.5 20.5t18.5 62.5v158h-6q-19 -35 -62.5 -66t-115.5 -31q-110 0 -179 76.5t-69 197.5q0 119 71.5 195.5t182.5 76.5
q110 0 175 -95h6v82h76v-602q0 -148 -158 -148h-225zM307 59q76 0 127 54.5t51 147.5q0 84 -48.5 142t-127.5 58q-77 0 -127.5 -55t-50.5 -145q0 -89 49.5 -145.5t126.5 -56.5z" />
    <glyph glyph-name="Gcommaaccent" unicode="&#x122;" horiz-adv-x="803" 
d="M406 -13q-152 0 -254 103.5t-102 259.5q0 155 101.5 259t253.5 104q115 0 202 -63t122 -164h-90q-28 69 -91 110t-143 41q-116 0 -193.5 -82t-77.5 -205q0 -124 78 -205.5t195 -81.5q88 0 156.5 47.5t93.5 146.5h-214v71h310q-12 -91 -45 -159t-81.5 -106.5t-103.5 -57
t-117 -18.5zM353 -229l16 169h79l-35 -169h-60z" />
    <glyph glyph-name="gcommaaccent" unicode="&#x123;" horiz-adv-x="641" 
d="M362 780l-16 -169h-79l35 169h60zM178 -230v73h226q41 0 59.5 20.5t18.5 62.5v158h-6q-19 -35 -62.5 -66t-115.5 -31q-110 0 -179 76.5t-69 197.5q0 119 71.5 195.5t182.5 76.5q110 0 175 -95h6v82h76v-602q0 -148 -158 -148h-225zM307 59q76 0 127 54.5t51 147.5
q0 84 -48.5 142t-127.5 58q-77 0 -127.5 -55t-50.5 -145q0 -89 49.5 -145.5t126.5 -56.5z" />
    <glyph glyph-name="Hcircumflex" unicode="&#x124;" horiz-adv-x="734" 
d="M234 790l94 130h84l94 -130h-74l-59 72h-6l-58 -72h-75zM100 0v700h81v-307h372v307h81v-700h-81v319h-372v-319h-81z" />
    <glyph glyph-name="hcircumflex" unicode="&#x125;" horiz-adv-x="612" 
d="M-1 790l94 130h84l94 -130h-74l-59 72h-6l-58 -72h-75zM90 0v750h79v-306h6q18 38 60.5 63.5t100.5 25.5q89 0 142.5 -59t53.5 -147v-327h-79v322q0 61 -40 99t-96 38q-61 0 -104.5 -40.5t-43.5 -102.5v-316h-79z" />
    <glyph glyph-name="Hbar" unicode="&#x126;" horiz-adv-x="734" 
d="M687 596v-72h-53v-524h-81v319h-372v-319h-81v524h-53v72h53v104h81v-104h372v104h81v-104h53zM553 393v131h-372v-131h372z" />
    <glyph glyph-name="hbar" unicode="&#x127;" horiz-adv-x="612" 
d="M336 533q89 0 142.5 -59t53.5 -147v-327h-79v322q0 61 -40 99t-96 38q-61 0 -104.5 -40.5t-43.5 -102.5v-316h-79v595h-65v64h65v91h79v-91h160v-64h-160v-151h6q18 38 60.5 63.5t100.5 25.5z" />
    <glyph glyph-name="Imacron" unicode="&#x12a;" horiz-adv-x="469" 
d="M117 814v67h242v-67h-242zM90 0v70h104v560h-104v70h289v-70h-104v-560h104v-70h-289z" />
    <glyph glyph-name="imacron" unicode="&#x12b;" horiz-adv-x="327" 
d="M48 634v67h242v-67h-242zM158 0v453h-98v67h177v-520h-79z" />
    <glyph glyph-name="Iogonek" unicode="&#x12e;" horiz-adv-x="469" 
d="M379 630h-104v-560h104v-70l-50 -50q-20 -20 -20 -38q0 -30 37 -30h33v-64h-48q-38 0 -66 21t-28 59q0 39 33 70l33 32h-213v70h104v560h-104v70h289v-70z" />
    <glyph glyph-name="iogonek" unicode="&#x12f;" horiz-adv-x="327" 
d="M197 729q25 0 41.5 -16.5t16.5 -40.5q0 -25 -16.5 -41.5t-41.5 -16.5t-41 16.5t-16 41.5q0 24 16 40.5t41 16.5zM60 453v67h177v-520l-50 -50q-20 -20 -20 -38q0 -30 37 -30h33v-64h-48q-38 0 -66 21t-28 59q0 39 33 70l33 32h-3v453h-98z" />
    <glyph glyph-name="Idotaccent" unicode="&#x130;" horiz-adv-x="469" 
d="M241 794q-25 0 -41 16.5t-16 41.5q0 24 16 40.5t41 16.5t41.5 -16.5t16.5 -40.5q0 -25 -16.5 -41.5t-41.5 -16.5zM90 0v70h104v560h-104v70h289v-70h-104v-560h104v-70h-289z" />
    <glyph glyph-name="dotlessi" unicode="&#x131;" horiz-adv-x="327" 
d="M158 0v453h-98v67h177v-520h-79z" />
    <glyph glyph-name="Jcircumflex" unicode="&#x134;" horiz-adv-x="530" 
d="M163 790l94 130h84l94 -130h-74l-59 72h-6l-58 -72h-75zM227 -13q-88 0 -147.5 50.5t-59.5 146.5h81q0 -58 34 -90t95 -32q70 0 99.5 43t29.5 109v412h-210v74h291v-484q0 -46 -11.5 -85t-35 -72.5t-66.5 -52.5t-100 -19z" />
    <glyph glyph-name="jcircumflex" unicode="&#x135;" horiz-adv-x="330" 
d="M32 610l94 130h84l94 -130h-74l-59 72h-6l-58 -72h-75zM15 -230v70h78q41 0 59.5 18.5t18.5 60.5v534h-113v67h192v-602q0 -148 -158 -148h-77z" />
    <glyph glyph-name="Kcommaaccent" unicode="&#x136;" horiz-adv-x="618" 
d="M100 0v700h81v-300h96l212 300h97l-243 -335l255 -365h-100l-220 326h-97v-326h-81zM277 -229l16 169h79l-35 -169h-60z" />
    <glyph glyph-name="kcommaaccent" unicode="&#x137;" horiz-adv-x="531" 
d="M90 0v750h79v-431h91l147 201h91l-171 -230v-6l184 -284h-94l-154 247h-94v-247h-79zM231 -229l16 169h79l-35 -169h-60z" />
    <glyph glyph-name="kgreenlandic" unicode="&#x138;" horiz-adv-x="531" 
d="M90 0v520h79v-201h91l147 201h91l-171 -230v-6l184 -284h-94l-154 247h-94v-247h-79z" />
    <glyph glyph-name="Lacute" unicode="&#x139;" horiz-adv-x="533" 
d="M106 790l60 133h92l-89 -133h-63zM100 0v700h81v-627h302v-73h-383z" />
    <glyph glyph-name="lacute" unicode="&#x13a;" horiz-adv-x="389" 
d="M143 790l60 133h92l-89 -133h-63zM65 0v68h105v614h-105v68h184v-682h105v-68h-289z" />
    <glyph glyph-name="Lcommaaccent" unicode="&#x13b;" horiz-adv-x="533" 
d="M100 0v700h81v-627h302v-73h-383zM237 -229l16 169h79l-35 -169h-60z" />
    <glyph glyph-name="lcommaaccent" unicode="&#x13c;" horiz-adv-x="389" 
d="M65 0v68h105v614h-105v68h184v-682h105v-68h-289zM153 -229l16 169h79l-35 -169h-60z" />
    <glyph glyph-name="Lcaron" unicode="&#x13d;" horiz-adv-x="533" 
d="M100 0v700h81v-627h302v-73h-383zM345 519v181h89l-24 -181h-65z" />
    <glyph glyph-name="lcaron" unicode="&#x13e;" horiz-adv-x="399" 
d="M65 0v68h105v614h-105v68h184v-682h105v-68h-289zM315 569v181h89l-24 -181h-65z" />
    <glyph glyph-name="Ldot" unicode="&#x13f;" horiz-adv-x="600" 
d="M100 0v700h81v-627h302v-73h-383zM364 327q-23 0 -39.5 17t-16.5 40t16.5 39.5t39.5 16.5t40 -16.5t17 -39.5t-17 -40t-40 -17z" />
    <glyph glyph-name="ldot" unicode="&#x140;" horiz-adv-x="560" 
d="M65 0v68h105v614h-105v68h184v-682h105v-68h-289zM400 327q-23 0 -39.5 17t-16.5 40t16.5 39.5t39.5 16.5t40 -16.5t17 -39.5t-17 -40t-40 -17z" />
    <glyph glyph-name="Lslash" unicode="&#x141;" horiz-adv-x="533" 
d="M181 73h302v-73h-383v256l-72 -39v83l72 39v361h81v-318l187 101v-83l-187 -101v-226z" />
    <glyph glyph-name="lslash" unicode="&#x142;" horiz-adv-x="429" 
d="M264 68h105v-68h-289v68h105v263l-102 -52v83l102 52v268h-105v68h184v-295l103 53v-83l-103 -53v-304z" />
    <glyph glyph-name="Nacute" unicode="&#x143;" horiz-adv-x="735" 
d="M342 790l60 133h92l-89 -133h-63zM100 0v700h133l316 -626h6v626h80v-700h-136l-312 626h-6v-626h-81z" />
    <glyph glyph-name="nacute" unicode="&#x144;" horiz-adv-x="608" 
d="M283 610l60 133h92l-89 -133h-63zM90 0v520h79v-76h6q18 38 59.5 63.5t99.5 25.5q89 0 141.5 -58.5t52.5 -147.5v-327h-79v322q0 61 -39 99t-95 38q-62 0 -104 -42.5t-42 -106.5v-310h-79z" />
    <glyph glyph-name="Ncommaaccent" unicode="&#x145;" horiz-adv-x="735" 
d="M100 0v700h133l316 -626h6v626h80v-700h-136l-312 626h-6v-626h-81zM304 -229l16 169h79l-35 -169h-60z" />
    <glyph glyph-name="ncommaaccent" unicode="&#x146;" horiz-adv-x="608" 
d="M90 0v520h79v-76h6q18 38 59.5 63.5t99.5 25.5q89 0 141.5 -58.5t52.5 -147.5v-327h-79v322q0 61 -39 99t-95 38q-62 0 -104 -42.5t-42 -106.5v-310h-79zM258 -229l16 169h79l-35 -169h-60z" />
    <glyph glyph-name="Ncaron" unicode="&#x147;" horiz-adv-x="735" 
d="M341 790l-94 130h75l58 -72h6l59 72h74l-94 -130h-84zM100 0v700h133l316 -626h6v626h80v-700h-136l-312 626h-6v-626h-81z" />
    <glyph glyph-name="ncaron" unicode="&#x148;" horiz-adv-x="608" 
d="M282 610l-94 130h75l58 -72h6l59 72h74l-94 -130h-84zM90 0v520h79v-76h6q18 38 59.5 63.5t99.5 25.5q89 0 141.5 -58.5t52.5 -147.5v-327h-79v322q0 61 -39 99t-95 38q-62 0 -104 -42.5t-42 -106.5v-310h-79z" />
    <glyph glyph-name="Eng" unicode="&#x14a;" horiz-adv-x="735" 
d="M100 0v700h133l316 -626h6v626h80v-700h-136l-312 626h-6v-626h-81z" />
    <glyph glyph-name="eng" unicode="&#x14b;" horiz-adv-x="608" 
d="M334 533q89 0 141.5 -58.5t52.5 -147.5v-409q0 -148 -158 -148h-77v70h78q41 0 59.5 18.5t18.5 60.5v403q0 61 -39 99t-95 38q-62 0 -104 -42.5t-42 -106.5v-310h-79v520h79v-76h6q18 38 59.5 63.5t99.5 25.5z" />
    <glyph glyph-name="Omacron" unicode="&#x14c;" 
d="M285 814v67h242v-67h-242zM406 -13q-152 0 -254 103.5t-102 259.5q0 155 102.5 259t254.5 104t254.5 -104.5t102.5 -258.5q0 -155 -102.5 -259t-255.5 -104zM407 63q117 0 195 81.5t78 205.5q0 123 -78.5 205t-194.5 82t-194.5 -82t-78.5 -205q0 -124 78 -205.5
t195 -81.5z" />
    <glyph glyph-name="omacron" unicode="&#x14d;" horiz-adv-x="643" 
d="M201 634v67h242v-67h-242zM321 -13q-117 0 -194 77.5t-77 195.5t78 195.5t194 77.5q117 0 194 -78t77 -195t-77.5 -195t-194.5 -78zM321 59q84 0 137.5 57t53.5 144t-53.5 144t-137.5 57q-83 0 -136.5 -57.5t-53.5 -143.5q0 -88 53.5 -144.5t136.5 -56.5z" />
    <glyph glyph-name="Ohungarumlaut" unicode="&#x150;" 
d="M290 790l60 142h92l-89 -142h-63zM431 790l60 142h92l-89 -142h-63zM406 -13q-152 0 -254 103.5t-102 259.5q0 155 102.5 259t254.5 104t254.5 -104.5t102.5 -258.5q0 -155 -102.5 -259t-255.5 -104zM407 63q117 0 195 81.5t78 205.5q0 123 -78.5 205t-194.5 82
t-194.5 -82t-78.5 -205q0 -124 78 -205.5t195 -81.5z" />
    <glyph glyph-name="ohungarumlaut" unicode="&#x151;" horiz-adv-x="643" 
d="M206 610l60 142h92l-89 -142h-63zM347 610l60 142h92l-89 -142h-63zM321 -13q-117 0 -194 77.5t-77 195.5t78 195.5t194 77.5q117 0 194 -78t77 -195t-77.5 -195t-194.5 -78zM321 59q84 0 137.5 57t53.5 144t-53.5 144t-137.5 57q-83 0 -136.5 -57.5t-53.5 -143.5
q0 -88 53.5 -144.5t136.5 -56.5z" />
    <glyph glyph-name="OE" unicode="&#x152;" horiz-adv-x="1090" 
d="M406 -13q-152 0 -254 103.5t-102 259.5q0 155 102.5 259t254.5 104q48 0 98 -13h524v-74h-386q103 -92 118 -233h236v-73h-234q-12 -152 -121 -247h398v-73h-536q-50 -13 -98 -13zM407 63q117 0 195 81.5t78 205.5q0 123 -78.5 205t-194.5 82t-194.5 -82t-78.5 -205
q0 -124 78 -205.5t195 -81.5z" />
    <glyph glyph-name="oe" unicode="&#x153;" horiz-adv-x="1060" 
d="M321 -13q-117 0 -194 77.5t-77 195.5t78 195.5t194 77.5q74 0 132.5 -33.5t93.5 -91.5h6q33 60 87 92.5t122 32.5q116 0 181.5 -73.5t65.5 -192.5v-29h-418q1 -86 48 -133.5t129 -47.5q56 0 100.5 30.5t56.5 83.5l77 -18q-22 -75 -84.5 -120.5t-150.5 -45.5
q-153 0 -219 122h-6q-35 -56 -93 -89t-129 -33zM594 302h335q-4 77 -51 118.5t-115 41.5q-66 0 -115.5 -44.5t-53.5 -115.5zM321 59q84 0 138 57t54 144t-54 144t-138 57q-83 0 -136.5 -57.5t-53.5 -143.5q0 -88 53.5 -144.5t136.5 -56.5z" />
    <glyph glyph-name="Racute" unicode="&#x154;" horiz-adv-x="612" 
d="M267 790l60 133h92l-89 -133h-63zM100 0v700h222q106 0 167 -55.5t61 -148.5q0 -80 -43 -135.5t-123 -70.5l188 -290h-98l-175 283h-118v-283h-81zM181 355h141q64 0 104 36.5t40 103.5q0 58 -39 95.5t-110 37.5h-136v-273z" />
    <glyph glyph-name="racute" unicode="&#x155;" horiz-adv-x="390" 
d="M193 610l60 133h92l-89 -133h-63zM90 0v520h78v-87h6q13 38 51.5 69t90.5 31h34v-79h-47q-68 0 -101 -48.5t-33 -127.5v-278h-79z" />
    <glyph glyph-name="Rcommaaccent" unicode="&#x156;" horiz-adv-x="612" 
d="M100 0v700h222q106 0 167 -55.5t61 -148.5q0 -80 -43 -135.5t-123 -70.5l188 -290h-98l-175 283h-118v-283h-81zM181 355h141q64 0 104 36.5t40 103.5q0 58 -39 95.5t-110 37.5h-136v-273zM257 -228l16 169h79l-35 -169h-60z" />
    <glyph glyph-name="rcommaaccent" unicode="&#x157;" horiz-adv-x="390" 
d="M90 0v520h78v-87h6q13 38 51.5 69t90.5 31h34v-79h-47q-68 0 -101 -48.5t-33 -127.5v-278h-79zM149 -229l16 169h79l-35 -169h-60z" />
    <glyph glyph-name="Rcaron" unicode="&#x158;" horiz-adv-x="612" 
d="M266 790l-94 130h75l58 -72h6l59 72h74l-94 -130h-84zM100 0v700h222q106 0 167 -55.5t61 -148.5q0 -80 -43 -135.5t-123 -70.5l188 -290h-98l-175 283h-118v-283h-81zM181 355h141q64 0 104 36.5t40 103.5q0 58 -39 95.5t-110 37.5h-136v-273z" />
    <glyph glyph-name="rcaron" unicode="&#x159;" horiz-adv-x="390" 
d="M192 610l-94 130h75l58 -72h6l59 72h74l-94 -130h-84zM90 0v520h78v-87h6q13 38 51.5 69t90.5 31h34v-79h-47q-68 0 -101 -48.5t-33 -127.5v-278h-79z" />
    <glyph glyph-name="Sacute" unicode="&#x15a;" horiz-adv-x="588" 
d="M253 790l60 133h92l-89 -133h-63zM295 -13q-106 0 -178 62.5t-72 158.5h81q0 -62 47 -104t125 -42q70 0 114 32t44 86q0 60 -40 92t-97 45t-113.5 28.5t-96.5 59.5t-40 121q0 78 61 132.5t163 54.5q91 0 160.5 -51.5t69.5 -151.5h-83q0 61 -38.5 95t-109.5 34
q-70 0 -106 -33t-36 -80q0 -38 21.5 -63.5t55.5 -38.5t75.5 -23t83 -23.5t75.5 -34t55.5 -61t21.5 -97.5q0 -85 -65.5 -141.5t-177.5 -56.5z" />
    <glyph glyph-name="sacute" unicode="&#x15b;" horiz-adv-x="529" 
d="M223 610l60 133h92l-89 -133h-63zM262 -13q-86 0 -139.5 43t-62.5 114l72 18q4 -52 39 -79t95 -27q57 0 89 25t32 66q0 40 -32 60.5t-77.5 29t-91.5 19t-78 43t-32 89.5q0 65 52.5 105t135.5 40q71 0 125.5 -39t63.5 -107l-69 -20q-5 45 -39 71.5t-86 26.5
q-48 0 -77.5 -21.5t-29.5 -55.5q0 -36 32 -54t78 -25.5t92 -18.5t78 -45t32 -94q0 -74 -55.5 -119t-146.5 -45z" />
    <glyph glyph-name="Scedilla" unicode="&#x15e;" horiz-adv-x="588" 
d="M538 185q0 -77 -54 -131.5t-149 -64.5l-15 -171h-74l22 170q-96 8 -159.5 69t-63.5 151h81q0 -62 47 -104t125 -42q70 0 114 32t44 86q0 60 -40 92t-97 45t-113.5 28.5t-96.5 59.5t-40 121q0 78 61 132.5t163 54.5q91 0 160.5 -51.5t69.5 -151.5h-83q0 61 -38.5 95
t-109.5 34q-70 0 -106 -33t-36 -80q0 -38 21.5 -63.5t55.5 -38.5t75.5 -23t83 -23.5t75.5 -34t55.5 -61t21.5 -97.5z" />
    <glyph glyph-name="scedilla" unicode="&#x15f;" horiz-adv-x="529" 
d="M464 151q0 -66 -45 -109.5t-121 -52.5l-15 -171h-74l22 171q-73 7 -118 48.5t-53 106.5l72 18q4 -52 39 -79t95 -27q57 0 89 25t32 66q0 40 -32 60.5t-77.5 29t-91.5 19t-78 43t-32 89.5q0 65 52.5 105t135.5 40q71 0 125.5 -39t63.5 -107l-69 -20q-5 45 -39 71.5
t-86 26.5q-48 0 -77.5 -21.5t-29.5 -55.5q0 -36 32 -54t78 -25.5t92 -18.5t78 -45t32 -94z" />
    <glyph glyph-name="Scaron" unicode="&#x160;" horiz-adv-x="588" 
d="M252 790l-94 130h75l58 -72h6l59 72h74l-94 -130h-84zM295 -13q-106 0 -178 62.5t-72 158.5h81q0 -62 47 -104t125 -42q70 0 114 32t44 86q0 60 -40 92t-97 45t-113.5 28.5t-96.5 59.5t-40 121q0 78 61 132.5t163 54.5q91 0 160.5 -51.5t69.5 -151.5h-83q0 61 -38.5 95
t-109.5 34q-70 0 -106 -33t-36 -80q0 -38 21.5 -63.5t55.5 -38.5t75.5 -23t83 -23.5t75.5 -34t55.5 -61t21.5 -97.5q0 -85 -65.5 -141.5t-177.5 -56.5z" />
    <glyph glyph-name="scaron" unicode="&#x161;" horiz-adv-x="529" 
d="M222 610l-94 130h75l58 -72h6l59 72h74l-94 -130h-84zM262 -13q-86 0 -139.5 43t-62.5 114l72 18q4 -52 39 -79t95 -27q57 0 89 25t32 66q0 40 -32 60.5t-77.5 29t-91.5 19t-78 43t-32 89.5q0 65 52.5 105t135.5 40q71 0 125.5 -39t63.5 -107l-69 -20q-5 45 -39 71.5
t-86 26.5q-48 0 -77.5 -21.5t-29.5 -55.5q0 -36 32 -54t78 -25.5t92 -18.5t78 -45t32 -94q0 -74 -55.5 -119t-146.5 -45z" />
    <glyph glyph-name="uni0162" unicode="&#x162;" horiz-adv-x="549" 
d="M234 0v626h-204v74h489v-74h-204v-626h-81zM218 -229l16 169h79l-35 -169h-60z" />
    <glyph glyph-name="uni0163" unicode="&#x163;" horiz-adv-x="432" 
d="M296 0q-158 0 -158 148v305h-98v67h103v151h74v-151h160v-67h-160v-304q0 -42 18.5 -61t59.5 -19h75v-69h-74zM207 -229l16 169h79l-35 -169h-60z" />
    <glyph glyph-name="Tcaron" unicode="&#x164;" horiz-adv-x="549" 
d="M238 790l-94 130h75l58 -72h6l59 72h74l-94 -130h-84zM234 0v626h-204v74h489v-74h-204v-626h-81z" />
    <glyph glyph-name="tcaron" unicode="&#x165;" horiz-adv-x="432" 
d="M340 569v181h89l-24 -181h-65zM296 0q-158 0 -158 148v305h-98v67h103v151h74v-151h160v-67h-160v-304q0 -42 18.5 -61t59.5 -19h75v-69h-74z" />
    <glyph glyph-name="Tbar" unicode="&#x166;" horiz-adv-x="549" 
d="M519 626h-204v-211h151v-70h-151v-345h-81v345h-151v70h151v211h-204v74h489v-74z" />
    <glyph glyph-name="tbar" unicode="&#x167;" horiz-adv-x="432" 
d="M377 453h-160v-100h146v-64h-146v-140q0 -42 18.5 -61t59.5 -19h75v-69h-74q-158 0 -158 148v141h-94v64h94v100h-98v67h103v151h74v-151h160v-67z" />
    <glyph glyph-name="Umacron" unicode="&#x16a;" horiz-adv-x="702" 
d="M230 814v67h242v-67h-242zM351 -13q-124 0 -192.5 71.5t-68.5 192.5v449h81v-448q0 -89 46.5 -139.5t133.5 -50.5t134 51t47 140v447h80v-448q0 -120 -69 -192.5t-192 -72.5z" />
    <glyph glyph-name="umacron" unicode="&#x16b;" horiz-adv-x="598" 
d="M182 634v67h242v-67h-242zM274 -13q-89 0 -141.5 58.5t-52.5 147.5v327h79v-324q0 -61 39 -99t95 -38q62 0 104 42.5t42 106.5v312h79v-520h-79v76h-6q-18 -38 -59.5 -63.5t-99.5 -25.5z" />
    <glyph glyph-name="Uring" unicode="&#x16e;" horiz-adv-x="702" 
d="M351 765q-40 0 -66 25.5t-26 63.5q0 39 26 64t65 25q41 0 67 -25t26 -63q0 -39 -26 -64.5t-66 -25.5zM351 813q19 0 29.5 11t10.5 31q0 18 -11 29t-30 11q-18 0 -28.5 -11t-10.5 -30t10.5 -30t29.5 -11zM351 -13q-124 0 -192.5 71.5t-68.5 192.5v449h81v-448
q0 -89 46.5 -139.5t133.5 -50.5t134 51t47 140v447h80v-448q0 -120 -69 -192.5t-192 -72.5z" />
    <glyph glyph-name="uring" unicode="&#x16f;" horiz-adv-x="598" 
d="M303 585q-40 0 -66 25.5t-26 63.5q0 39 26 64t65 25q41 0 67 -25t26 -63q0 -39 -26 -64.5t-66 -25.5zM303 633q19 0 29.5 11t10.5 31q0 18 -11 29t-30 11q-18 0 -28.5 -11t-10.5 -30t10.5 -30t29.5 -11zM274 -13q-89 0 -141.5 58.5t-52.5 147.5v327h79v-324q0 -61 39 -99
t95 -38q62 0 104 42.5t42 106.5v312h79v-520h-79v76h-6q-18 -38 -59.5 -63.5t-99.5 -25.5z" />
    <glyph glyph-name="Uhungarumlaut" unicode="&#x170;" horiz-adv-x="702" 
d="M235 790l60 142h92l-89 -142h-63zM376 790l60 142h92l-89 -142h-63zM351 -13q-124 0 -192.5 71.5t-68.5 192.5v449h81v-448q0 -89 46.5 -139.5t133.5 -50.5t134 51t47 140v447h80v-448q0 -120 -69 -192.5t-192 -72.5z" />
    <glyph glyph-name="uhungarumlaut" unicode="&#x171;" horiz-adv-x="598" 
d="M187 610l60 142h92l-89 -142h-63zM328 610l60 142h92l-89 -142h-63zM274 -13q-89 0 -141.5 58.5t-52.5 147.5v327h79v-324q0 -61 39 -99t95 -38q62 0 104 42.5t42 106.5v312h79v-520h-79v76h-6q-18 -38 -59.5 -63.5t-99.5 -25.5z" />
    <glyph glyph-name="Uogonek" unicode="&#x172;" horiz-adv-x="702" 
d="M532 700h80v-448q0 -103 -51 -171.5t-144 -87.5l-43 -43q-20 -20 -20 -38q0 -30 37 -30h33v-64h-48q-38 0 -66 21t-28 59q0 39 33 70l20 19q-117 5 -181 76t-64 188v449h81v-448q0 -89 46.5 -139.5t133.5 -50.5t134 51t47 140v447z" />
    <glyph glyph-name="uogonek" unicode="&#x173;" horiz-adv-x="598" 
d="M452 -88q0 -30 37 -30h33v-64h-48q-38 0 -66 21t-28 59q0 39 33 70l33 32h-7v76h-6q-18 -38 -59.5 -63.5t-99.5 -25.5q-89 0 -141.5 58.5t-52.5 147.5v327h79v-324q0 -61 39 -99t95 -38q62 0 104 42.5t42 106.5v312h79v-520h4l-50 -50q-20 -20 -20 -38z" />
    <glyph glyph-name="Wcircumflex" unicode="&#x174;" horiz-adv-x="928" 
d="M329 790l94 130h84l94 -130h-74l-59 72h-6l-58 -72h-75zM189 0l-169 700h87l143 -626h6l147 626h122l147 -626h6l143 626h87l-169 -700h-128l-144 626h-6l-144 -626h-128z" />
    <glyph glyph-name="wcircumflex" unicode="&#x175;" horiz-adv-x="862" 
d="M297 610l94 130h84l94 -130h-74l-59 72h-6l-58 -72h-75zM192 0l-162 520h86l127 -446h6l127 446h110l126 -446h6l128 446h86l-163 -520h-110l-125 446h-6l-126 -446h-110z" />
    <glyph glyph-name="Ycircumflex" unicode="&#x176;" horiz-adv-x="596" 
d="M171 790l94 130h84l94 -130h-74l-59 72h-6l-58 -72h-75zM258 0v309l-238 391h91l182 -311h6l182 311h95l-238 -391v-309h-80z" />
    <glyph glyph-name="ycircumflex" unicode="&#x177;" horiz-adv-x="556" 
d="M147 610l94 130h84l94 -130h-74l-59 72h-6l-58 -72h-75zM60 -230v72h58q35 0 55 14.5t32 46.5l37 97h-21l-191 520h88l152 -444h6l161 444h89l-253 -652q-20 -51 -57.5 -74.5t-100.5 -23.5h-55z" />
    <glyph glyph-name="Ydieresis" unicode="&#x178;" horiz-adv-x="596" 
d="M221 802q-22 0 -37 15t-15 37t15 37t37 15q23 0 37.5 -15t14.5 -37q0 -23 -14.5 -37.5t-37.5 -14.5zM389 802q-23 0 -37.5 14.5t-14.5 37.5t14.5 37.5t37.5 14.5q22 0 37 -15t15 -37t-15 -37t-37 -15zM258 0v309l-238 391h91l182 -311h6l182 311h95l-238 -391v-309h-80z
" />
    <glyph glyph-name="Zacute" unicode="&#x179;" horiz-adv-x="619" 
d="M265 790l60 133h92l-89 -133h-63zM50 0v110l443 511v6h-430v73h504v-110l-443 -511v-6h445v-73h-519z" />
    <glyph glyph-name="zacute" unicode="&#x17a;" horiz-adv-x="516" 
d="M212 610l60 133h92l-89 -133h-63zM60 0v97l317 350v6h-308v67h382v-97l-317 -350v-6h322v-67h-396z" />
    <glyph glyph-name="Zdotaccent" unicode="&#x17b;" horiz-adv-x="619" 
d="M309 794q-25 0 -41 16.5t-16 41.5q0 24 16 40.5t41 16.5t41.5 -16.5t16.5 -40.5q0 -25 -16.5 -41.5t-41.5 -16.5zM50 0v110l443 511v6h-430v73h504v-110l-443 -511v-6h445v-73h-519z" />
    <glyph glyph-name="zdotaccent" unicode="&#x17c;" horiz-adv-x="516" 
d="M256 614q-25 0 -41 16.5t-16 41.5q0 24 16 40.5t41 16.5t41.5 -16.5t16.5 -40.5q0 -25 -16.5 -41.5t-41.5 -16.5zM60 0v97l317 350v6h-308v67h382v-97l-317 -350v-6h322v-67h-396z" />
    <glyph glyph-name="Zcaron" unicode="&#x17d;" horiz-adv-x="619" 
d="M264 790l-94 130h75l58 -72h6l59 72h74l-94 -130h-84zM50 0v110l443 511v6h-430v73h504v-110l-443 -511v-6h445v-73h-519z" />
    <glyph glyph-name="zcaron" unicode="&#x17e;" horiz-adv-x="516" 
d="M211 610l-94 130h75l58 -72h6l59 72h74l-94 -130h-84zM60 0v97l317 350v6h-308v67h382v-97l-317 -350v-6h322v-67h-396z" />
    <glyph glyph-name="florin" unicode="&#x192;" horiz-adv-x="514" 
d="M-10 -192l9 69h47q44 0 67.5 20t30.5 69l55 385h-72v67h81l21 147q20 143 177 143h53l-9 -69h-47q-44 0 -67.5 -20t-30.5 -69l-18 -132h104v-67h-113l-58 -400q-20 -143 -177 -143h-53z" />
    <glyph glyph-name="Scommaaccent" unicode="&#x218;" horiz-adv-x="588" 
d="M295 -13q-106 0 -178 62.5t-72 158.5h81q0 -62 47 -104t125 -42q70 0 114 32t44 86q0 60 -40 92t-97 45t-113.5 28.5t-96.5 59.5t-40 121q0 78 61 132.5t163 54.5q91 0 160.5 -51.5t69.5 -151.5h-83q0 61 -38.5 95t-109.5 34q-70 0 -106 -33t-36 -80q0 -38 21.5 -63.5
t55.5 -38.5t75.5 -23t83 -23.5t75.5 -34t55.5 -61t21.5 -97.5q0 -85 -65.5 -141.5t-177.5 -56.5zM246 -229l16 169h79l-35 -169h-60z" />
    <glyph glyph-name="scommaaccent" unicode="&#x219;" horiz-adv-x="529" 
d="M262 -13q-86 0 -139.5 43t-62.5 114l72 18q4 -52 39 -79t95 -27q57 0 89 25t32 66q0 40 -32 60.5t-77.5 29t-91.5 19t-78 43t-32 89.5q0 65 52.5 105t135.5 40q71 0 125.5 -39t63.5 -107l-69 -20q-5 45 -39 71.5t-86 26.5q-48 0 -77.5 -21.5t-29.5 -55.5q0 -36 32 -54
t78 -25.5t92 -18.5t78 -45t32 -94q0 -74 -55.5 -119t-146.5 -45zM209 -229l16 169h79l-35 -169h-60z" />
    <glyph glyph-name="uni021A" unicode="&#x21a;" horiz-adv-x="549" 
d="M30 700h489v-74h-204v-626h-7l-16 -182h-74l24 182h-8v626h-204v74z" />
    <glyph glyph-name="uni021B" unicode="&#x21b;" horiz-adv-x="432" 
d="M377 453h-160v-304q0 -42 18.5 -61t59.5 -19h75v-69h-73l-16 -182h-74l25 190q-94 28 -94 140v305h-98v67h103v151h74v-151h160v-67z" />
    <glyph glyph-name="uni0237" unicode="&#x237;" horiz-adv-x="330" 
d="M15 -230v70h78q41 0 59.5 18.5t18.5 60.5v534h-113v67h192v-602q0 -148 -158 -148h-77z" />
    <glyph glyph-name="circumflex" unicode="&#x2c6;" horiz-adv-x="372" 
d="M50 610l94 130h84l94 -130h-74l-59 72h-6l-58 -72h-75z" />
    <glyph glyph-name="caron" unicode="&#x2c7;" horiz-adv-x="372" 
d="M144 610l-94 130h75l58 -72h6l59 72h74l-94 -130h-84z" />
    <glyph glyph-name="breve" unicode="&#x2d8;" horiz-adv-x="354" 
d="M177 609q-61 0 -94 35.5t-33 90.5h63q0 -71 64 -71q33 0 48.5 19.5t15.5 51.5h63q0 -55 -33 -90.5t-94 -35.5z" />
    <glyph glyph-name="dotaccent" unicode="&#x2d9;" horiz-adv-x="215" 
d="M107 614q-25 0 -41 16.5t-16 41.5q0 24 16 40.5t41 16.5t41.5 -16.5t16.5 -40.5q0 -25 -16.5 -41.5t-41.5 -16.5z" />
    <glyph glyph-name="ring" unicode="&#x2da;" horiz-adv-x="280" 
d="M140 585q-40 0 -66 25.5t-26 63.5q0 39 26 64t65 25q41 0 67 -25t26 -63q0 -39 -26 -64.5t-66 -25.5zM140 633q19 0 29.5 11t10.5 31q0 18 -11 29t-30 11q-18 0 -28.5 -11t-10.5 -30t10.5 -30t29.5 -11z" />
    <glyph glyph-name="ogonek" unicode="&#x2db;" horiz-adv-x="242" 
d="M144 -182q-38 0 -66 21t-28 59q0 39 33 70l33 32h76l-50 -50q-20 -20 -20 -38q0 -30 37 -30h33v-64h-48z" />
    <glyph glyph-name="tilde" unicode="&#x2dc;" horiz-adv-x="419" 
d="M274 614q-28 0 -68 27.5t-58 27.5q-38 0 -38 -54h-60q0 55 27 86.5t70 31.5q27 0 68 -27t57 -27q38 0 38 54h59q0 -55 -26.5 -87t-68.5 -32z" />
    <glyph glyph-name="hungarumlaut" unicode="&#x2dd;" horiz-adv-x="393" 
d="M50 610l60 142h92l-89 -142h-63zM191 610l60 142h92l-89 -142h-63z" />
    <glyph glyph-name="uni0326" unicode="&#x326;" horiz-adv-x="0" 
d="M-145 -229l16 169h79l-35 -169h-60z" />
    <glyph glyph-name="Wgrave" unicode="&#x1e80;" horiz-adv-x="928" 
d="M450 790l-89 133h92l60 -133h-63zM189 0l-169 700h87l143 -626h6l147 626h122l147 -626h6l143 626h87l-169 -700h-128l-144 626h-6l-144 -626h-128z" />
    <glyph glyph-name="wgrave" unicode="&#x1e81;" horiz-adv-x="862" 
d="M418 610l-89 133h92l60 -133h-63zM192 0l-162 520h86l127 -446h6l127 446h110l126 -446h6l128 446h86l-163 -520h-110l-125 446h-6l-126 -446h-110z" />
    <glyph glyph-name="Wacute" unicode="&#x1e82;" horiz-adv-x="928" 
d="M425 790l60 133h92l-89 -133h-63zM189 0l-169 700h87l143 -626h6l147 626h122l147 -626h6l143 626h87l-169 -700h-128l-144 626h-6l-144 -626h-128z" />
    <glyph glyph-name="wacute" unicode="&#x1e83;" horiz-adv-x="862" 
d="M393 610l60 133h92l-89 -133h-63zM192 0l-162 520h86l127 -446h6l127 446h110l126 -446h6l128 446h86l-163 -520h-110l-125 446h-6l-126 -446h-110z" />
    <glyph glyph-name="Wdieresis" unicode="&#x1e84;" horiz-adv-x="928" 
d="M379 802q-22 0 -37 15t-15 37t15 37t37 15q23 0 37.5 -15t14.5 -37q0 -23 -14.5 -37.5t-37.5 -14.5zM547 802q-23 0 -37.5 14.5t-14.5 37.5t14.5 37.5t37.5 14.5q22 0 37 -15t15 -37t-15 -37t-37 -15zM189 0l-169 700h87l143 -626h6l147 626h122l147 -626h6l143 626h87
l-169 -700h-128l-144 626h-6l-144 -626h-128z" />
    <glyph glyph-name="wdieresis" unicode="&#x1e85;" horiz-adv-x="862" 
d="M347 622q-22 0 -37 15t-15 37t15 37t37 15q23 0 37.5 -15t14.5 -37q0 -23 -14.5 -37.5t-37.5 -14.5zM515 622q-23 0 -37.5 14.5t-14.5 37.5t14.5 37.5t37.5 14.5q22 0 37 -15t15 -37t-15 -37t-37 -15zM192 0l-162 520h86l127 -446h6l127 446h110l126 -446h6l128 446h86
l-163 -520h-110l-125 446h-6l-126 -446h-110z" />
    <glyph glyph-name="Ygrave" unicode="&#x1ef2;" horiz-adv-x="596" 
d="M292 790l-89 133h92l60 -133h-63zM258 0v309l-238 391h91l182 -311h6l182 311h95l-238 -391v-309h-80z" />
    <glyph glyph-name="ygrave" unicode="&#x1ef3;" horiz-adv-x="556" 
d="M268 610l-89 133h92l60 -133h-63zM60 -230v72h58q35 0 55 14.5t32 46.5l37 97h-21l-191 520h88l152 -444h6l161 444h89l-253 -652q-20 -51 -57.5 -74.5t-100.5 -23.5h-55z" />
    <glyph glyph-name="uni2000" unicode="&#x2000;" horiz-adv-x="471" 
 />
    <glyph glyph-name="uni2001" unicode="&#x2001;" horiz-adv-x="943" 
 />
    <glyph glyph-name="uni2002" unicode="&#x2002;" horiz-adv-x="471" 
 />
    <glyph glyph-name="uni2003" unicode="&#x2003;" horiz-adv-x="943" 
 />
    <glyph glyph-name="uni2004" unicode="&#x2004;" horiz-adv-x="314" 
 />
    <glyph glyph-name="uni2005" unicode="&#x2005;" horiz-adv-x="235" 
 />
    <glyph glyph-name="uni2006" unicode="&#x2006;" horiz-adv-x="157" 
 />
    <glyph glyph-name="uni2007" unicode="&#x2007;" horiz-adv-x="157" 
 />
    <glyph glyph-name="uni2008" unicode="&#x2008;" horiz-adv-x="117" 
 />
    <glyph glyph-name="uni2009" unicode="&#x2009;" horiz-adv-x="188" 
 />
    <glyph glyph-name="uni200A" unicode="&#x200a;" horiz-adv-x="52" 
 />
    <glyph glyph-name="uni2010" unicode="&#x2010;" horiz-adv-x="395" 
d="M70 264v74h255v-74h-255z" />
    <glyph glyph-name="uni2011" unicode="&#x2011;" horiz-adv-x="395" 
d="M70 264v74h255v-74h-255z" />
    <glyph glyph-name="figuredash" unicode="&#x2012;" horiz-adv-x="395" 
d="M70 264v74h255v-74h-255z" />
    <glyph glyph-name="endash" unicode="&#x2013;" horiz-adv-x="658" 
d="M70 267v68h518v-68h-518z" />
    <glyph glyph-name="emdash" unicode="&#x2014;" horiz-adv-x="923" 
d="M70 267v68h783v-68h-783z" />
    <glyph glyph-name="quoteleft" unicode="&#x2018;" horiz-adv-x="246" 
d="M70 496l41 204h65l-17 -204h-89z" />
    <glyph glyph-name="quoteright" unicode="&#x2019;" horiz-adv-x="246" 
d="M70 496l17 204h89l-41 -204h-65z" />
    <glyph glyph-name="quotesinglbase" unicode="&#x201a;" horiz-adv-x="266" 
d="M70 -111l17 204h89l-41 -204h-65z" />
    <glyph glyph-name="quotedblleft" unicode="&#x201c;" horiz-adv-x="390" 
d="M70 496l41 204h65l-17 -204h-89zM214 496l41 204h65l-17 -204h-89z" />
    <glyph glyph-name="quotedblright" unicode="&#x201d;" horiz-adv-x="390" 
d="M70 496l17 204h89l-41 -204h-65zM214 496l17 204h89l-41 -204h-65z" />
    <glyph glyph-name="quotedblbase" unicode="&#x201e;" horiz-adv-x="410" 
d="M70 -111l17 204h89l-41 -204h-65zM214 -111l17 204h89l-41 -204h-65z" />
    <glyph glyph-name="dagger" unicode="&#x2020;" horiz-adv-x="431" 
d="M175 0v456h-115v70h115v174h79v-174h117v-70h-117v-456h-79z" />
    <glyph glyph-name="daggerdbl" unicode="&#x2021;" horiz-adv-x="431" 
d="M175 0v183h-115v70h115v194h-115v70h115v183h78v-183h118v-70h-118v-194h118v-70h-118v-183h-78z" />
    <glyph glyph-name="bullet" unicode="&#x2022;" horiz-adv-x="464" 
d="M232 138q-74 0 -123 50t-49 122t49 122t123 50t123 -50t49 -122t-49 -122t-123 -50z" />
    <glyph glyph-name="uni202F" unicode="&#x202f;" horiz-adv-x="188" 
 />
    <glyph glyph-name="perthousand" unicode="&#x2030;" horiz-adv-x="1179" 
d="M224 407q-66 0 -110 44t-44 108t44 109t109 45q68 0 113 -44.5t45 -109.5q0 -64 -45 -108t-112 -44zM101 0l533 700h82l-534 -700h-81zM225 469q40 0 64 26t24 64q0 39 -25 65.5t-64 26.5q-38 0 -62.5 -26.5t-24.5 -65.5q0 -38 25 -64t63 -26zM590 -13q-67 0 -111 43.5
t-44 108.5q0 64 44 109t110 45q67 0 112 -44.5t45 -109.5q0 -64 -45 -108t-111 -44zM952 -13q-67 0 -111 43.5t-44 108.5q0 64 44.5 109t109.5 45q68 0 113 -44.5t45 -109.5q0 -64 -45 -108t-112 -44zM590 48q40 0 64 26t24 65t-24.5 65t-64.5 26q-38 0 -62.5 -26t-24.5 -65
t24.5 -65t63.5 -26zM953 48q39 0 63.5 26t24.5 65t-25 65t-65 26q-38 0 -62.5 -26t-24.5 -65t25 -65t64 -26z" />
    <glyph glyph-name="guilsinglleft" unicode="&#x2039;" horiz-adv-x="331" 
d="M189 109l-124 176v14l124 177h77l-124 -181v-6l124 -180h-77z" />
    <glyph glyph-name="guilsinglright" unicode="&#x203a;" horiz-adv-x="331" 
d="M65 109l124 180v6l-124 181h77l124 -177v-14l-124 -176h-77z" />
    <glyph glyph-name="fraction" unicode="&#x2044;" horiz-adv-x="482" 
d="M10 -41l389 782h73l-389 -782h-73z" />
    <glyph glyph-name="uni205F" unicode="&#x205f;" horiz-adv-x="235" 
 />
    <glyph glyph-name="Euro" unicode="&#x20ac;" horiz-adv-x="628" 
d="M302 636q-63 0 -104.5 -42t-41.5 -108v-43h200v-61h-200v-88h200v-61h-200v-19q0 -66 41 -108t105 -42t105 42.5t41 107.5h80v-5q0 -100 -67.5 -161t-158.5 -61t-158.5 61t-67.5 161v24h-56v61h56v88h-56v61h56v48q0 100 67.5 161t158.5 61q93 0 159.5 -61t66.5 -161v-5
h-80q0 65 -39.5 107.5t-106.5 42.5z" />
    <glyph glyph-name="uni2116" unicode="&#x2116;" horiz-adv-x="1173" 
d="M915 357q-77 0 -127.5 51.5t-50.5 125.5t50.5 126.5t127.5 52.5t127.5 -52.5t50.5 -126.5t-50.5 -125.5t-127.5 -51.5zM100 0v700h81l368 -548h6v548h80v-700h-80l-368 556h-6v-556h-81zM915 423q50 0 80 32t30 79t-30 80t-80 33t-80 -33t-30 -80t30 -79t80 -32zM751 228
v74h327v-74h-327z" />
    <glyph glyph-name="trademark" unicode="&#x2122;" horiz-adv-x="816" 
d="M153 340v304h-93v56h246v-56h-93v-304h-60zM364 340v360h103l90 -304h6l90 304h103v-360h-58v304h-6l-91 -304h-82l-91 304h-6v-304h-58z" />
    <glyph glyph-name="arrowleft" unicode="&#x2190;" 
d="M764 308h-590v-6l227 -224l-56 -56l-295 294v62l295 294l56 -56l-227 -224v-5h590v-79z" />
    <glyph glyph-name="arrowup" unicode="&#x2191;" horiz-adv-x="750" 
d="M644 363l-224 227h-6v-590h-79v590h-5l-224 -227l-56 56l294 295h62l294 -295z" />
    <glyph glyph-name="arrowright" unicode="&#x2192;" 
d="M469 672l295 -294v-62l-295 -294l-56 56l227 224v6h-590v79h590v5l-227 224z" />
    <glyph glyph-name="arrowdown" unicode="&#x2193;" horiz-adv-x="750" 
d="M644 351l56 -56l-294 -295h-62l-294 295l56 56l224 -227h5v590h79v-590h6z" />
    <glyph glyph-name="uni2196" unicode="&#x2196;" horiz-adv-x="655" 
d="M549 145l-417 417l-4 -4l2 -319h-79l-1 417l44 44l416 -1v-79l-318 2l-4 -4l417 -417z" />
    <glyph glyph-name="uni2197" unicode="&#x2197;" horiz-adv-x="655" 
d="M561 700l44 -44l-1 -417h-79l2 319l-4 4l-417 -417l-56 56l417 417l-4 4l-318 -2v79z" />
    <glyph glyph-name="uni2198" unicode="&#x2198;" horiz-adv-x="655" 
d="M604 460l1 -417l-44 -44l-416 1v79l318 -2l4 4l-417 417l56 56l417 -417l4 4l-2 319h79z" />
    <glyph glyph-name="uni2199" unicode="&#x2199;" horiz-adv-x="655" 
d="M188 81l4 -4l318 2v-79l-416 -1l-44 44l1 417h79l-2 -319l4 -4l417 417l56 -56z" />
    <glyph glyph-name="minus" unicode="&#x2212;" horiz-adv-x="480" 
d="M5 278v67h470v-67h-470z" />
    <glyph glyph-name="uni25FC" unicode="&#x25fc;" horiz-adv-x="520" 
d="M0 520h520v-520h-520v520z" />
    <glyph glyph-name="i.loclTRK" horiz-adv-x="345" 
d="M197 614q-25 0 -41 16.5t-16 41.5q0 24 16 40.5t41 16.5t41.5 -16.5t16.5 -40.5q0 -25 -16.5 -41.5t-41.5 -16.5zM158 0v453h-98v67h177v-520h-79z" />
    <glyph glyph-name="zero.tf" horiz-adv-x="624" 
d="M312 -13q-91 0 -158.5 61t-67.5 161v282q0 100 67.5 161t158.5 61t158.5 -61t67.5 -161v-282q0 -100 -67.5 -161t-158.5 -61zM312 64q64 0 105 42.5t41 107.5v272q0 64 -41.5 107t-104.5 43t-104.5 -43t-41.5 -107v-272q0 -65 41 -107.5t105 -42.5z" />
    <glyph glyph-name="one.tf" horiz-adv-x="624" 
d="M148 0v74h142v552h-6l-164 -85v79l155 80h96v-626h132v-74h-355z" />
    <glyph glyph-name="two.tf" horiz-adv-x="624" 
d="M100 0v103l280 290q56 59 56 120q0 54 -35.5 89t-95.5 35q-58 0 -94 -37t-36 -92h-76q0 80 55.5 142.5t152.5 62.5q96 0 154 -58.5t58 -139.5q0 -49 -18 -86t-53 -76l-274 -273v-6h351v-74h-425z" />
    <glyph glyph-name="three.tf" horiz-adv-x="624" 
d="M304 -12q-100 0 -156 64t-56 141h76q2 -56 38.5 -92.5t95.5 -36.5q67 0 107 42.5t40 105.5q0 62 -40.5 104t-107.5 42h-71v89l211 173v6h-333v74h407v-108l-198 -158v-6h6q53 0 95 -21.5t66 -55t36 -69t12 -68.5q0 -96 -61.5 -161t-166.5 -65z" />
    <glyph glyph-name="four.tf" horiz-adv-x="624" 
d="M388 0v177h-325v94l283 429h122v-451h92v-72h-92v-177h-80zM137 249h251v377h-6l-245 -371v-6z" />
    <glyph glyph-name="five.tf" horiz-adv-x="624" 
d="M310 -13q-92 0 -153.5 51.5t-65.5 143.5h76q7 -59 44 -89.5t96 -30.5q63 0 103.5 42.5t40.5 107.5q0 67 -40 109.5t-110 42.5q-25 0 -47 -7t-35.5 -17t-24 -20.5t-14.5 -17.5l-5 -7h-70l24 405h363v-74h-292l-15 -235h6q5 5 14 13t40.5 21t67.5 13q98 0 159 -65.5
t61 -160.5q0 -99 -63 -162t-160 -63z" />
    <glyph glyph-name="six.tf" horiz-adv-x="624" 
d="M311 -13q-96 0 -162 66.5t-66 164.5q0 65 36 130l192 352h92l-151 -261l4 -4q27 12 59 12q96 0 161 -65.5t65 -163.5q0 -97 -67 -164t-163 -67zM311 63q64 0 105.5 44.5t41.5 110.5q0 65 -41.5 110.5t-105.5 45.5q-63 0 -104.5 -45.5t-41.5 -110.5q0 -66 41 -110.5
t105 -44.5z" />
    <glyph glyph-name="seven.tf" horiz-adv-x="624" 
d="M194 0l259 620v6h-281v-74h-75v148h430v-99l-247 -601h-86z" />
    <glyph glyph-name="eight.tf" horiz-adv-x="624" 
d="M312 -13q-102 0 -165.5 58t-63.5 151q0 65 36 111.5t77 63.5v6q-33 17 -58 56t-25 93q0 82 57.5 134.5t141.5 52.5q83 0 141 -52.5t58 -134.5q0 -54 -25 -93t-58 -56v-6q41 -17 77 -63.5t36 -111.5q0 -93 -63.5 -151t-165.5 -58zM312 407q53 0 85 33.5t32 82.5t-32 82
t-85 33t-85 -33t-32 -82t32 -82.5t85 -33.5zM312 61q68 0 107 39.5t39 95.5q0 63 -41.5 100t-104.5 37t-104.5 -37t-41.5 -100q0 -56 39 -95.5t107 -39.5z" />
    <glyph glyph-name="nine.tf" horiz-adv-x="624" 
d="M221 0l151 261l-4 4q-27 -12 -59 -12q-96 0 -161 65.5t-65 163.5q0 97 67 164t163 67t162 -66.5t66 -164.5q0 -65 -36 -130l-192 -352h-92zM313 326q63 0 104.5 45.5t41.5 110.5q0 66 -41 110.5t-105 44.5t-105.5 -44.5t-41.5 -110.5q0 -65 41.5 -110.5t105.5 -45.5z" />
    <glyph glyph-name="caron.Slovak" horiz-adv-x="189" 
d="M50 519v181h89l-24 -181h-65z" />
    </font>
</defs>
</svg>
